<svg xmlns="http://www.w3.org/2000/svg" viewBox="0 0 400 NaN" height="400" width="400" fill-rule="evenodd" xmlns:v="https://vecta.io/nano"><path fill="#ed7f35" d="M156.4 19.2c0 .22-.275.4-.61.4-1.67 0-4.19 3.483-4.19 5.789 0 2.19-.01 2.211-1.2 2.211-6.493 1.803-30.997 7.814-32 9.889 0 .353-1.257 4.324.263 4.324 11.332-1.217 25.816-9.016 35.388-10 .88 0-1.65-1.633-1.65-1.413s.27.4.6.4.6.152.6.339c0 .631 1.5 2.061 2.147 2.061.36 0 .653.18.653.4s.812.4 1.805.4c2.58 0 1.773 1.903 1.59 3.813-.13 1.368 1.33 7.187 2.068 7.187s2.31-1.952 2.31-8.673c0-1.769-.735-3.127.207-3.127.667 0 4.018-3.494 4.018-4.189 0-.336.18-.611.4-.611s.4-.36.4-.8-.18-.8-.4-.8-.4-.72-.4-1.6-.18-1.6-.4-1.6-.4-.276-.4-.613c0-.796-2.59-3.387-3.387-3.387-.337 0-.613-.18-.613-.4 0-.237-1.467-.4-3.6-.4s-3.6.163-3.6.4m77.6 2.4c-7.123 1.596-9.087.269-12.622 7.689-.656.655-.805 2.09-.805 1.496 0-.229-.48.002-2.08.002-13.6-2.588-33.337-4.731-47.245-4.8-2.133 0-2.333.859-2.333 1.57s-2.987 3.258-.854 3.258c12.142 3.904 35.39 6.315 47.95 6.366 1.6 0 2.575 1.362 2.575 1.591 0 .22-.363-.564.077-.564.733 0 .137-1.54.137 1.393 0 1.867.167 3.2.4 3.2.22 0 .4.54.4 1.2s.18 1.2.4 1.2.4.27.4.6.23.6.514.6.854.576 1.27 1.281c3.772 5.724 7.494 5.833 12.616 7.513 0 .229 1.166.354 2.8.3 3.554-.383 7.01-.967 10-2.694 0-.22.273-.4.607-.4.886 0 5.793-5.048 5.793-5.96 0-1.199.43-2.04 1.043-2.04.383 0 .557-.499.557-1.6 0-.88.18-1.6.4-1.6.23 0 .4-1.2.4-2.8s-.17-2.8-.4-2.8c-.22 0-.4-.72-.4-1.6s-.18-1.6-.4-1.6-.4-.36-.4-.8-.18-.8-.4-.8-.4-.273-.4-.607c-4.012-5.985-10.216-8.975-16.4-8.993-2.133 0-3.6.163-3.6.4m4.8 5.6c0 .22-.72.4-1.6.4s-1.6-.18-1.6-.4.72-.4 1.6-.4 1.6.18 1.6.4m-4.8.8c0 .22-.36.4-.8.4s-.8-.18-.8-.4.36-.4.8-.4.8.18.8.4m11.2 1.6c0 .22.283.4.63.4.79 0 1.968 1.143 1.564 1.519-.166.155-.383.056-.48-.219-.276-.771-1.337-.593-2.168.364-.412.475-.883.721-1.047.545s-.072-.399.203-.497.5-.704.5-1.345.18-1.167.4-1.167a.4.4 0 0 1 .4.4M230 30.8c0 .533.267.8.8.8.44 0 .8.18.8.4a.4.4 0 0 1-.4.4c-.22 0-.4.54-.4 1.2v1.2h6.8c6.533 0 6.8-.031 6.8-.8 0-.44.18-.8.4-.8s.4.36.4.8.18.8.4.8a.4.4 0 0 1 .4.4c0 .254-3.067.4-8.4.4h-8.4v1.167c0 .641.225 1.271.5 1.4.4.186.4.28 0 .466-.275.129-.5.759-.5 1.4s-.18 1.167-.4 1.167c-.23 0-.4-1.2-.4-2.8s.17-2.8.4-2.8c.22 0 .4-.36.4-.8s.18-.8.4-.8.4-.54.4-1.2c0-1.022-.152-1.2-1.03-1.2-1.157 0-2.17.827-2.17 1.771 0 .346-.18.629-.4.629s-.4.54-.4 1.2-.18 1.2-.4 1.2-.4-.54-.4-1.2.18-1.2.4-1.2.4-.275.4-.611c0-.842 2.44-3.328 3.3-3.362.442-.017.7.267.7.773m5.6-.4c0 .22-.36.4-.8.4s-.8-.18-.8-.4.36-.4.8-.4.8.18.8.4m5.6 0c0 .22-.54.4-1.2.4s-1.2-.18-1.2-.4.54-.4 1.2-.4 1.2.18 1.2.4m8 3.6c0 .44.18.8.4.8.233 0 .4 1.333.4 3.2s-.167 3.2-.4 3.2-.4-1.333-.4-3.2-.167-3.2-.4-3.2c-.22 0-.4-.36-.4-.8s.18-.8.4-.8.4.36.4.8m-2.4 4.4c0 1.1-.18 2-.4 2s-.4-.345-.4-.767-.225-.871-.5-1c-.4-.186-.4-.28 0-.466.275-.129.5-.579.5-1s.18-.767.4-.767.4.9.4 2m-21.6 0c0 .66-.18 1.2-.4 1.2s-.4-.54-.4-1.2.18-1.2.4-1.2.4.54.4 1.2m13.525.299c0 .22-.465-.699-1.125-.699-.933 0-1.2.178-1.2.8 0 .533.267.8.8.8.44 0 2.117-1.625 2.2-1.421.254.628-1.258 2.641-2.004 2.558-1.546.365-1.948-2.197-1.295-2.938.57-.647 3.182-.367 3.182.239m4.318.992c0 .125-.28.507-.62.847-.78.781-1.25.39-.52-.434.546-.618 1.14-.833 1.14-.413m-9.74 1.595c.563.564.926 1.123.806 1.243-.218.217-2.267-1.635-2.267-2.049 0-.446.465-.19 1.46.806M226 41.2c0 .44-.18.8-.4.8s-.4-.36-.4-.8.18-.8.4-.8.4.36.4.8m23.2 1.429c0 .791-1.143 1.968-1.52 1.564-.155-.166-.056-.383.22-.481s.5-.524.5-.945.18-.767.4-.767.4.283.4.629m-4 .571a.4.4 0 0 1-.4.4c-.22 0-.4.36-.4.8 0 .622.267.8 1.2.8 1.454 0 1.48.158.218 1.418s-1.418 1.236-1.418-.218c0-1.248-1.323-1.789-1.712-.7-.098.275-.31.377-.472.228s.31-.903 1.045-1.673c1.382-1.445 1.94-1.748 1.94-1.055m-14.17.971c.775.776.718 1.029-.23 1.029-.533 0-.8.267-.8.8 0 .455-.267.8-.618.8-.78 0-2.77-1.953-2.37-2.324.164-.152.378-.051.476.224.316.883 2.512.621 2.512-.3 0-.947.253-1.004 1.03-.229m8.57.629c0 .66.18 1.2.4 1.2a.4.4 0 0 1 .4.4c0 .22-.36.4-.8.4-.667 0-.8-.267-.8-1.6 0-.88.18-1.6.4-1.6s.4.54.4 1.2m-3.2.8c0 1.067-.133 1.2-1.2 1.2-.66 0-1.2-.18-1.2-.4s.36-.4.8-.4c.533 0 .8-.267.8-.8 0-.44.18-.8.4-.8s.4.54.4 1.2m-1.6 3.2c0 .22-.36.4-.8.4s-.8-.18-.8-.4.36-.4.8-.4.8.18.8.4m7.2 0c0 .22-.36.4-.8.4s-.8-.18-.8-.4.36-.4.8-.4.8.18.8.4m-3.2.8c0 .22-.54.4-1.2.4s-1.2-.18-1.2-.4.54-.4 1.2-.4 1.2.18 1.2.4m-90.6 5.6c-.136.22.108.4.543.4s.882.225.993.5c.156.383.295.368.598-.067.3-.443 1.705-.573 6.428-.6 3.318-.018 6.034-.168 6.035-.333.004-.464-14.31-.366-14.597.1m40.535-.124c-.036.178-.08 1.404-.1 2.724l-.035 2.4-10.6.2c-8.183.154-10.7.086-11.044-.3-.33-.372-2.725-.5-9.33-.5-9.817 0-10.412.136-9.628 2.198.22.58.4 1.492.4 2.028s.18.974.4.974.4-.619.4-1.376-.18-1.488-.4-1.624c-.676-.418-.444-1 .4-1 .444 0 .8.267.8.6 0 .812 14.608.91 14.935.1.16-.4.208-.4.233 0 .018.282.556.5 1.232.5h1.2v5.638l9.5-.039 10.4-.019c.822.018.9.211.9 2.227v2.207l-19.8-.214-.128-.9c-.134-.942-.65-1.183-1.072-.5-.136.22-.597.4-1.024.4s-.776.18-.776.4-.27.4-.6.4-.6-.18-.6-.4c0-.253-2.933-.4-8-.4h-8v1c0 .55-.18 1-.4 1s-.4.27-.4.6c0 .525 2.524.6 20.315.6 20.028 0 20.316.011 20.375.8s-.188.8-19.615.805l-20.57.246c-2.793.749 1.54.949 20.52.949H189.6V66.024c0-6.753-.15-10.869-.4-11.024-.22-.136-.43-.102-.465.076m-107.69 1.901C77.13 61.386 70.42 63.905 67.6 69.342c0 1.594 1.173 1.551 2.76-.1 4.416-4.509 11.144-7.578 14.33-13.38-.37-1.123-1.864-.666-3.645 1.115m97.556 5.008c2.275.282 2.176.305-1.9.438-7.065.231-7.623.208-7.8-.323-.2-.569 5.5-.636 9.7-.115m.6 2.466l1.8.062-2.2.337c-4.8.736-10.117.9-9.92.306.18-.546 5.813-1.198 7.72-.894.44.07 1.6.155 2.6.189M44.8 72c0 .22-.373.4-.83.4A2.01 2.01 0 0 0 42 74.371c0 .456-.18.829-.4.829-.66 0-.48 3.083.193 3.342.333.128.49.494.36.833-.272.71.715 1.825 1.617 1.825.346 0 .63.18.63.4s1.067.4 2.4.4 2.4.178 2.4.4.385.4.856.4c.8 0 .84-.147.627-2.223-.178-1.717-.1-2.273.344-2.443.774-.297.758-2.777-.02-3.076-.333-.128-.49-.494-.36-.833.298-.776-.747-1.825-1.817-1.825-.456 0-.83-.18-.83-.4s-.72-.4-1.6-.4-1.6.18-1.6.4m1.2 3.98c0 .605-.55.794-1.063.368-.8-.656-.654-1.104.263-.864.44.115.8.338.8.496m2.4.42c0 .44-.18.8-.4.8s-.4-.36-.4-.8.18-.8.4-.8.4.36.4.8m247.48 2.254c-.153.154-.28.789-.28 1.413s-.18 1.133-.4 1.133c-.23 0-.4 1.2-.4 2.8s-.17 2.8-.4 2.8c-.222 0-.4 1.067-.4 2.4s-.178 2.4-.4 2.4-.4 1.003-.4 2.229c0 2.409-.566 3.371-1.985 3.371-4.34 0-4.677 8.047-.395 9.406.43.137.78.416.78.621s.72.373 1.6.373 1.6-.18 1.6-.4.294-.4.653-.4 1.014-.405 1.454-.9c.543-.61.858-.739.98-.4.1.275-.358 1.875.284 1.875s1.98.368 1.98.588c1.405.588 16.922 8.733 18.25 9.237.533 0 1.363-2.129 1.363-2.662s-14.83-7.737-15.363-7.737c-1.357-.747-.75-1.15-4-2 .625-.657-.36-.4-.8-.4-.693 0-.8-.267-.8-2 0-1.1-.18-2-.4-2s-.4-.278-.4-.618c0-.8-1.782-2.582-2.582-2.582-.34 0-.618-.18-.618-.4a.4.4 0 0 1 .4-.4c.23 0 .4-1.2.4-2.8s.17-2.8.4-2.8c.222 0 .4-1.067.4-2.4s.178-2.4.4-2.4c.23 0 .4-1.2.4-2.8s.17-2.8.4-2.8c.22 0 .4-.36.4-.8s-.165-.8-.367-.8-.617-.096-.92-.212-.68-.087-.833.066M59.6 81.553c0 .246-.36.447-.8.447s-.8.18-.8.4a.4.4 0 0 0 .4.4c.22 0 .4.225.403.5.003.593 3.22 2.734 3.68 2.449.7-.432.358-4.149-.382-4.154-.385-.003-1.105-.114-1.6-.247-.54-.145-.9-.063-.9.205M74 82.6c0 .33.18.6.4.6s.4-.27.4-.6-.18-.6-.4-.6-.4.27-.4.6m0 7.2c0 .55.18 1 .4 1s.4-.45.4-1-.18-1-.4-1-.4.45-.4 1m-20 5.6c0 1.358 1.338 2.6 2.8 2.6 1.572 0 1.535-.719-.12-2.322C55.063 94.11 54 94 54 95.4m17.28 2.28c-.773.773-.582 1.92.32 1.92.44 0 .8.18.8.4s.36.4.8.4.8.18.8.4.36.4.8.4l29.6 14.753c0 .543 2.135.829 2.7.363.768-.636.594-1.516-.3-1.516-.44 0-.8-.18-.8-.4s-.36-.4-.8-.4-.8-.18-.8-.4L74.888 98.8c-.39 0-.97-.36-1.288-.8-.65-.902-1.606-1.034-2.32-.32m141.218 18.413c-.26-.782-4.898-.668-4.898.12 0 .336-.315.731-.7.877-1.366.517-1.7 1.245-1.7 3.7 0 2.436-1.938 3.169-2.39 4.41-3.025 8.279-9.934 10.181-9.934 10.866 0 1.079-.396 3.282 3.7 4.034-4.88 5.855 10.97-14.406 11.825-15.3 0 .22.9.4 2 .4s2-.18 2-.4.342-.4.76-.4c.486 0 .912-.434 1.18-1.2.23-.66.608-1.2.84-1.2s.42-.72.42-1.6-.18-1.6-.4-1.6-.4-.278-.4-.618c0-.704 1.743-2.582 2.396-2.582 3.374-2.457 5.294-5.48 8.83-8 1.52 0 3.153-3.024 2.074-3.843m103.1 2.643c0 .22-.79.4-1.753.4-1.395 0-1.795.158-1.955.77-.128.491-.836.96-1.947 1.292-1.853.554-5.145 3.451-5.145 4.527 0 .344-.35.611-.8.611-.667 0-.8.267-.8 1.6 0 .88-.18 1.6-.4 1.6-.24 0-.4 1.6-.4 4s.16 4 .4 4c.22 0 .4.72.4 1.6-3.633 3.011-21.294 9.977-25.646 11.062-7.967 3.067-7.362 11.045 1.68 5.801 8.256-1.083 22.302-11.034 27.476-12.156 6.712 9.904 8.13 4.314 11.063 9.104.134 9.387.286 14.929-.594 15.575-.567 2.356-.734 4.337-.378 5.814h2.452l4.382-19.736c2.742-.195 7.522-6.094 9.53-7.693 4.515-5.575 5.524-14.176 1.237-20.171-.44-.317-.8-.812-.8-1.099-3.238-5.072-9.377-7.286-14.4-7.301-2.133 0-3.6.163-3.6.4m-166.08 1.311c.387 0 2.416 4.927 2.3 8.289-.146 4.258 3.766 11.648 4.583 11.648s4.733 2.469 4.733-2.148c0-4.144.62-18.412.064-18.412-2.572.665 2.434.706-5.192 1.712M47.6 115.6v5.6h-1.2c-.66 0-1.2.18-1.2.4s-.275.4-.61.4c-.793 0-4.19 3.396-4.19 4.189 0 .336-.18.611-.4.611s-.4.99-.4 2.2.18 2.2.4 2.2.4.546.4 1.213c0 1.323 2.263 3.987 3.387 3.987.337 0 .613.18.613.4s.54.4 1.2.4 1.2.18 1.2.4 1.067.4 2.4.4 2.4-.178 2.4-.4.474-.4 1.053-.4 1.39-.387 1.8-.861.747-.654.747-.4.194.461.43.461c2.935 2.823 7.205 5.223 9.992 8.024l1.56 1.624 1.07-.992c1.086-1.007.723-2.256-.656-2.256-.253 0-1.15-.72-1.997-1.6-2.667-2.888-6.754-4.04-8.4-7.382.82-1.319.796-2.936.8-4.218 0-2.133-.163-3.6-.4-3.6-.22 0-.4-.278-.4-.618 0-.8-1.782-2.582-2.582-2.582-.34 0-.618-.18-.618-.4s-.36-.4-.8-.4-.8-.18-.8-.4-.54-.4-1.2-.4H50v-5.357c0-4.516-.1-5.396-.633-5.6-1.716-.659-1.767-.503-1.767 5.357m289.5-3.205c4.01.456-1.67 1.057-2.924.175-.75-.607-.74-.622.224-.405.55.123 1.765.227 2.7.23m-3.1 3.525c0 .616.216 1.336.48 1.6.373.373.284.48-.4.48-.71 0-.88-.23-.88-1.2 0-1.021-.153-1.2-1.024-1.2-.58 0-.916-.173-.776-.4.612-.991 2.6-.441 2.6.72m-6.4-.102c0 .412-2.048 2.267-2.264 2.051-.12-.119.207-.667.724-1.218.896-.956 1.54-1.304 1.54-.833m3.2.582c0 .44-.18.8-.4.8s-.4-.36-.4-.8.18-.8.4-.8.4.36.4.8m12.23-.229c.775.776.718 1.029-.23 1.029-.533 0-.8-.267-.8-.8 0-.947.253-1.004 1.03-.229m-10.88 2.312c-.274.444-1.35.397-1.35-.058 0-.206.348-.349.772-.317s.684.201.577.375m-6.95 2.717c0 .88-.18 1.6-.4 1.6s-.4-.72-.4-1.6.18-1.6.4-1.6.4.72.4 1.6m14.4 1.6c0 .44-.18.8-.4.8s-.4-.36-.4-.8.18-.8.4-.8.4.36.4.8m5.6 0c0 .44-.18.8-.4.8s-.4-.36-.4-.8.18-.8.4-.8.4.36.4.8m-14.4 1.6c0 .44-.18.8-.4.8s-.4-.36-.4-.8.18-.8.4-.8.4.36.4.8m-4.8.4c0 .22.36.4.8.4.947 0 1.004.253.23 1.029s-1.03.718-1.03-.229c0-.44-.18-.8-.4-.8a.4.4 0 0 1 0-.8.4.4 0 0 1 .4.4m7.43.171c.655.656.765 1.829.17 1.829-.22 0-.4-.324-.4-.72a1.95 1.95 0 0 0-.48-1.2c-.264-.264-.34-.48-.17-.48s.565.257.88.571m10.97-.171a.4.4 0 0 1-.4.4c-.22 0-.4.36-.4.8s-.18.8-.4.8-.4-.54-.4-1.2c0-.933.178-1.2.8-1.2.44 0 .8.18.8.4m-9.6 4.8c0 .22.53.4 1.176.4s1.288.18 1.424.4c.156.252-.796.4-2.576.4-1.616 0-2.824-.171-2.824-.4 0-.22.27-.4.6-.4s.6-.18.6-.4.36-.4.8-.4.8.18.8.4m-211.056 11.079c-.17.681-.1 1.136.193 1.233.3.1.463 1.278.463 3.321 1.397 20.073 5.505 27.336-1.6 31.463 0 .414-.36 1.14-.8 1.612-2.893 6.067 2.788 11.669 8.4 11.692 3.142.389 5.353-2.172 7.495-2.9.095.275.477.5.85.5s.938.36 1.255.8.897.8 1.288.8c5.704 3.396 11.89 6.335 17.512 10 0 .22.345.4.767.4s.83.19.907.423.453.303.834.157c.945-.363.93-2.18-.02-2.18-.39 0-.97-.36-1.288-.8s-.897-.8-1.288-.8c-5.75-3.157-11.823-6.7-17.512-10 0-.22-.283-.4-.63-.4-.876 0-2.128-1.281-1.467-1.501.614-.205.707-6.499.096-6.499-.22 0-.4-.36-.4-.8 0-.5.267-.8.712-.8.39 0 .97-.36 1.288-.8s.825-.8 1.128-.8 1.055-.54 1.672-1.2c2.88-2.784 7.794-4.114 9.6-7.782 0-.42-.384-.618-1.2-.618-4.914 1.598-8.656 6.406-13.36 8.8-.352 0-.64.18-.64.4-1.956 1.002-3.613-.937-5.43-1.2-4.442-1.643-4.678-23.736-6.17-29.6-.22 0-.4-.9-.4-2 0-2.391-1.71-3.09-2.256-.921m171.527 5.988c.194 1.003 1.13 1.141 1.13.166 0-.491-.258-.833-.63-.833s-.577.272-.5.667m.33 3.133l.003.889c.002.158.36.293.795.3.974.014 1.06.789.097.868l-1.195.1c-.708.061-.625 1.243.087 1.243.358 0 .498.235.358.6-.37.962 1.355.734 1.88-.248.32-.596.323-.768.014-.577-.242.15-.44.082-.44-.151s.36-.424.8-.424c1.1 0 1.003-.961-.218-2.182-1.134-1.134-2.182-1.335-2.182-.418m-12.8.6c0 .22-.36.4-.8.4-.533 0-.8.267-.8.8 0 .693.267.8 2 .8s2 .107 2 .8c0 .44.18.8.4.8s.4.36.4.8c0 .533.267.8.8.8.44 0 .8-.18.8-.4s.36-.4.8-.4c.71 0 .8-.267.8-2.4s-.09-2.4-.8-2.4c-.44 0-.8.18-.8.4s-.72.4-1.6.4-1.6-.18-1.6-.4-.36-.4-.8-.4-.8.18-.8.4m-112.3 2.598c-.275.313-.5.846-.5 1.185s-.18.617-.4.617-.4.72-.4 1.6.18 1.6.4 1.6.4.9.4 2c0 1.733.107 2 .8 2 .533 0 .8.267.8.8 0 .667.267.8 1.6.8s1.6-.133 1.6-.8c0-.533.267-.8.8-.8.68 0 .8-.267.8-1.8 0-.99.18-1.8.4-1.8s.4-.81.4-1.8-.18-1.8-.4-1.8-.4-.283-.4-.629c0-1.667-4.65-2.592-5.9-1.173m104.3.202c0 .44-.18.8-.4.8-.594 0-.484 1.173.17 1.829 1.398 1.397 2.63.728 2.63-1.429 0-1.956-.027-2-1.2-2-.933 0-1.2.178-1.2.8m15.9-.097c-.385.086-.7.421-.7.745 0 1.283-1.88 2.552-3.782 2.552-1 0-1.818-.18-1.818-.4 0-.89-2.116-.361-3.2.8-1.118 1.197-4 1.774-4 .8 0-.22-.54-.4-1.2-.4s-1.2-.18-1.2-.4-.9-.4-2-.4-2 .155-2 .344c0 .539-4.488.881-5.083.387-.884-.734-.573-1.131.883-1.131 1.333 0 1.4-.067 1.4-1.4 0-1.801-.993-1.878-2.6-.2-.632.66-1.386 1.2-1.675 1.2s-.525.267-.525.592-.495.711-1.1.855c-2.895.689-3.917 2.331-2.448 3.933.527.576.418 1.02-.252 1.02-.33 0-.6-.18-.6-.4 0-.719-.602-.42-1.005.5-.434.988-4.67 2.676-4.91 1.957-.08-.242-.664-.175-1.496.173-1.7.71-1.8.708-1.8-.03a.6.6 0 0 0-1.2 0c0 .33.18.6.4.6s.4.36.4.8c0 .46.267.8.627.8.445 0 .553.232.373.8s-.072.8.373.8c.345 0 .627.266.627.59 0 .442.3.53 1.2.35.94-.188 1.2-.099 1.2.41 0 1.897 2 .671 2.04-1.25.053-2.527.468-3.9 1.178-3.9.734 0 .81 2.615.082 2.894-.893.342-.628 2.906.3 2.906.44 0 .8-.18.8-.4s.468-.4 1.04-.4c.64 0 1.47-.462 2.16-1.2 1.318-1.411 1.6-1.481 1.6-.4 0 .44-.18.8-.4.8s-.4.36-.4.8c0 .667.267.8 1.6.8s1.6.133 1.6.8c0 .44.18.8.4.8s.4.36.4.8c0 .5.267.8.712.8.39 0 .97.36 1.288.8.432.599 1.035.8 2.4.8s1.968-.201 2.4-.8c.596-.826 2-1.107 2-.4 0 .22-.33.4-.736.4s-.944.458-1.2 1.019c-.558 1.226-.6 2.181-.095 2.181 1.387 0 2.83 2.127 2.83 4.168 0 2.305 1.126 3.495 2.673 2.822.4-.174.952-.28 1.227-.236s.5-.107.5-.336-.27-.418-.6-.418a.6.6 0 0 1-.6-.6c0-.33-.18-.6-.4-.6s-.4-.54-.4-1.2.18-1.2.4-1.2.4.54.4 1.2c0 .958.172 1.2.852 1.2.773 0 .833-.167.65-1.8-.153-1.36-.068-1.8.348-1.8.97 0 .73-3.951-.293-4.838-.775-.672-.79-.784-.2-1.375.683-.683 1.844-.055 1.844.997 0 .243.245.535.545.65.36.138.502.716.42 1.701l-.127 1.491 2.182.032c1.2.017 2.18-.124 2.18-.313s.42-.345.936-.345c.6 0 1.094-.348 1.39-1 .25-.55.625-1 .832-1 .643 0 3.64-3.103 3.64-3.769 0-.347.18-.631.4-.631s.4-.54.4-1.2-.18-1.2-.4-1.2-.4-.7-.4-1.556c0-1.471-.074-1.565-1.355-1.715-.984-.115-1.3-.017-1.157.357.11.283-.002.514-.245.514s-.443-.419-.443-.931c0-.806.16-.907 1.2-.754 1 .148 1.2.042 1.2-.67 0-.465.18-.845.4-.845.74 0 .424-2.206-.4-2.8-.44-.317-.8-.897-.8-1.288 0-.445-.3-.712-.8-.712-.985 0-1.062-.687-.1-.886.995-.206 2.5.115 2.5.533 0 .194-.18.353-.4.353s-.4.283-.4.629c0 1.892 3.468 2.512 4.393.785.3-.543.708-.875.93-.739.227.141.278.048.116-.213-.17-.274-.03-.462.338-.462.343 0 .624-.27.624-.6a.6.6 0 0 0-.6-.6c-.33 0-.6.289-.6.643 0 .422-.218.559-.633.4-.348-.134-1.068-.243-1.6-.243-.758 0-.967-.211-.967-.973 0-.66-.3-1.063-.9-1.253-.495-.153-1.35-.582-1.9-.953s-1.315-.603-1.7-.518m-11.9 2.497c0 .533.267.8.8.8s.8-.267.8-.8-.267-.8-.8-.8-.8.267-.8.8m-13.958 5.318c-.514.514-1.035.117-.654-.498.147-.238.45-.32.674-.181.274.168.267.392-.02.679m19.813.482c.127.33.48.6.788.6s.557.18.557.4-.54.4-1.2.4c-1.013 0-1.2-.156-1.2-1 0-1.095.69-1.356 1.055-.4m-21.855 1.4c0 .926-.01.929-1.398.401-1.235-.47-.978-1.201.422-1.201.71 0 .976.218.976.8m25.6 1.624c0 .427-.18.776-.4.776s-.4-.461-.4-1.024c0-.58.173-.916.4-.776.22.136.4.597.4 1.024m-19.2.776c0 .622-.267.8-1.2.8-.66 0-1.2-.18-1.2-.4s.36-.4.8-.4.8-.18.8-.4a.4.4 0 0 1 .4-.4c.22 0 .4.36.4.8m8.753-.5c-.152.96.174 1.3 1.247 1.3.66 0 1.2.18 1.2.4s-.9.4-2 .4c-2.103 0-2.58-.574-1.5-1.802.542-.615 1.13-.781 1.053-.298m11.247 3.1c0 .33-.18.6-.4.6s-.4-.27-.4-.6.18-.6.4-.6.4.27.4.6m-16.8.2c0 .22-.36.4-.8.4s-.8-.18-.8-.4.36-.4.8-.4.8.18.8.4m15.6.771c0 .204-.45.725-1 1.158s-1 .985-1 1.229-.36.442-.8.442-.8-.199-.8-.443.28-.335.62-.204c.374.143.518.072.362-.18-.617-.999.208-2.373 1.425-2.373.655 0 1.192.167 1.192.371m-10.4.567c0 .076-.347.452-.772.837-.74.67-.764.665-.554-.138.173-.661 1.326-1.269 1.326-.699m-84.537 6.2c3.72 4.166 8.014 6.772 11.738 10.463 1.54 1.519 2.8 3.04 2.8 3.381 0 .352.344.619.8.619.44 0 .8.18.8.4a.4.4 0 0 1-.4.4c-1.32 5.13 1.398 7.923 6 6.729 0-.678 2.634.828 3.33 1.63 3.93 4.604 14.08 14.397 14.67 8.447 0-.816-.532-1.606-1.082-1.606-3.366-3.102-13.816-8.949-14.118-10.8.68 0 .445-2.752-.3-3.534a15.07 15.07 0 0 1-1.288-1.6c-.48-.705-.983-.866-2.71-.866-2.658-3.319-6.423-6.991-8.766-9.213-3.653-2.781-14.76-16.255-19.22-17.425-.385 0-2.793 2.19-2.793 2.844M278.8 173.6c0 .22-.27.4-.6.4s-.6-.18-.6-.4.27-.4.6-.4.6.18.6.4m-1.6.8c0 .22-.36.4-.8.4s-.8-.18-.8-.4.36-.4.8-.4.8.18.8.4m-104.433 7.103c1.72 4.672 1.227 8.017 3.505 11.335 3.118-3.563 7.657 2.681 6.825-.578.225-1.023-7.37-23.2-8.083-23.2-.75 0-4.986-1.973-4.986.157M280 177.536c0 .184-.45.541-1 .791-.883.403-1 .363-1-.336 0-.577.27-.791 1-.791.55 0 1 .151 1 .336"/><path fill="#07346d" d="M95.455 25c-.134.35-.733.6-1.44.6-4.544 0-12.155 6.758-13.68 12.147-.257.909-.718 1.861-1.026 2.115-.37.306-.416.549-.134.723.567.351.544 4.093-.027 4.447-.31.19-.246.394.2.643.358.201.65.656.65 1.013 0 .896 2.44 6.112 2.86 6.112.188 0 .34.27.34.6s.162.6.36.6.735.585 1.193 1.3.836 1.156.84.981.804.229 1.78.9 1.965 1.219 2.2 1.219.428.18.428.4.45.4 1 .4 1 .225 1 .5c0 .311.566.5 1.5.5 1.002 0 1.466.169 1.397.51-.096.471 5.365.373 7-.126a.7.7 0 0 1 .756.285c.174.283.394.207.632-.218.206-.367.87-.651 1.52-.651.636 0 1.278-.196 1.426-.435s.608-.346 1.023-.237c.488.127.755-.012.755-.392 0-.408.247-.512.8-.336.568.18.8.072.8-.373 0-.345.193-.627.43-.627s.657-.225.936-.5 1.064-.922 1.744-1.439 1.723-1.641 2.318-2.5 1.327-1.561 1.627-1.561c.34 0 .546-.453.546-1.2 0-.66.315-1.516.7-1.902 1.214-1.217.626-12.898-.65-12.898-.14 0-.498-.546-.793-1.214-.902-2.037-4.9-5.814-7.158-6.745-.715-.296-1.3-.797-1.3-1.113s-.187-.46-.415-.319c-.59.365-4.494-.644-5.047-1.305-.307-.367-.55-.41-.723-.128-.333.538-4.884.559-5.215.024-.36-.581-.88-.49-1.145.2m6.008 6.249c1.175.906 2.137 1.868 2.137 2.135s.405.675.9.905c1.298.602 4.697 3.438 4.698 3.92.001.225.59.726 1.31 1.114 1.847.995 1.972 3.801.186 4.158l-1.124.225.23 7.294 1.1.127c1.252.144 1.6 1.796.467 2.23-1.524.585-24.454.262-24.963-.352-.753-.908-.222-1.675 1.364-1.973l1.432-.268V42.85l-1.44.234c-2.344.38-2.974-1.556-1.06-3.253 2.996-2.657 3.546-3.044 4.12-2.902.378.094.64-.132.675-.577.05-.658 1.86-2.526 3.74-3.856.392-.277 1.25-1.042 1.908-1.7 1.54-1.54 1.77-1.516 4.32.453M96.8 34.212a74.29 74.29 0 0 0-2.6 2.11c-2.426 2.142-4.448 3.457-5.136 3.34-.584-.099-.713.034-.52.536.14.367.256.929.256 1.249 0 .698.874.289 2.4-1.122 1.36-1.257 3.03-2.077 3.562-1.749.252.156.438-.018.438-.408 0-.583.293-.645 2.072-.434 1.14.135 2.264.091 2.5-.098.674-.539 3.028-.032 3.028.653 0 .427.267.531.934.363.624-.156 1.216.028 1.783.557.467.435 1.037.791 1.266.791s.417.264.417.586c0 .512 1.132 1.414 1.774 1.414.648 0 .077-1.254-.974-2.139-.66-.555-1.2-1.201-1.2-1.435s-.257-.426-.57-.426-.814-.225-1.1-.5-1.524-1.307-2.73-2.292-2.25-1.931-2.323-2.1c-.288-.663-1.548-.237-3.267 1.104m0 5.188c0 .373-.378.6-1 .6-.55 0-1 .159-1 .353s.45.44 1 .545c.67.128 1 .012 1-.353 0-.394.61-.545 2.2-.545 1.69 0 2.2-.139 2.2-.6s-.51-.6-2.2-.6-2.2.139-2.2.6m5.3.465a.88.88 0 0 0-.5.755c0 .666 1.667.179 1.913-.558.156-.47-.508-.562-1.413-.197m-8.9 1.231c-.33.129-.822.52-1.092.869-.413.532-.552.545-.857.081C90.53 40.95 90 43.079 90 47.074V51l4.2.038c2.3.02 4.2-.027 4.2-.106s-.585-.666-1.3-1.305c-1.204-1.075-1.266-1.251-.843-2.372.416-1.102.38-1.222-.4-1.333-1.186-.169-1.365-1.729-.266-2.317.46-.247 1.192-.337 1.624-.2 1.14.361.964-.395-.215-.932-.82-.374-1-.35-1 .136 0 .325-.27.591-.6.591s-.6.18-.6.4-.45.4-1 .4c-1.252 0-1.382-1.355-.2-2.093 1.29-.806 1.017-1.362-.4-.811m10.4.124c0 .209.193.38.43.38.754 0 1.657 1.199 1.403 1.861-.186.485-.586.586-1.643.415-1.264-.205-1.338-.168-.775.395.88.881.496 1.551-.808 1.406-.892-.099-1.06.006-.856.537.674 1.757.658 2.454-.075 3.3-.423.487-1.003.886-1.29.886s-.39.129-.233.286 1.902.292 3.878.3l3.593.014-.224-8.64-1.7-.761c-.935-.418-1.7-.589-1.7-.379m42.89 12.603c-.883.618-.89.698-.89 11.938 0 13.917-.822 12.579 7.82 12.728l6.38.111.123 1.931c.068 1.062-.083 2.179-.334 2.483-1.016 1.223.043 1.386 9.015 1.386h8.956l-.16-5.8 6.4-.2c3.52-.11 6.625-.346 6.9-.524.705-.456.724-23.492.02-24.196-.814-.814-43.06-.678-44.23.143m43.01 1.196c.705.22.724 20.997.02 21.701-.36.361-5.62.48-21.2.48h-20.73l-.368-.967c-.24-.629-.21-1.387.085-2.167.345-.914.333-1.564-.052-2.733-.435-1.321-.454-4.922-.055-10.533.023-.33-.075-1.184-.22-1.897s-.143-1.927.001-2.696l.263-1.399 17.482-.114c16.678-.109 23.684-.018 24.783.325M57.663 84.842c-1.83 4.942 5.944 8.054 8.72 3.491 1.03-1.694.79-1.933-1.934-1.933-1.938 0-2.556-.19-3.877-1.189-1.872-1.417-2.492-1.495-2.908-.369m114.37 2.938c-.022 1.025.103 1.443.356 1.19.24-.241.254-.843.034-1.58-.35-1.176-.356-1.171-.4.39m-23.585-.039c-.425.512-.23 1.059.375 1.059.448 0 .784-1.148.404-1.383-.186-.114-.536.031-.78.324M36.8 88.6c0 .514 1.178.6 8.2.6s8.2-.086 8.2-.6-1.178-.6-8.2-.6-8.2.086-8.2.6m135.6 1.6c0 .33.18.6.4.6s.4-.27.4-.6-.18-.6-.4-.6-.4.27-.4.6m-64.933 2.867c-.383.382-.33.933.1.933.197 0 .46-.27.588-.6.234-.61-.192-.819-.678-.333m-43.56 2.582c.28.357.383.972.232 1.366-.19.492-.128.626.193.427.678-.419.574-1.261-.232-1.893-.623-.488-.644-.477-.193.1m-2.173.578c-.132.345-.054.813.173 1.04.284.284.395.089.353-.627-.07-1.198-.188-1.292-.526-.413m44.67 23.686c-.002.281-.28.617-.614.746-.473.182-.506.36-.148.791.274.331.365 1.153.223 2.028-.412 2.537.822 6.323 3.062 9.393.522 3.92 8.652 7.565 17.194 6.013.483-.235 1.6-.633 2.48-.884 1.908-.543 3.306-1.183 4.37-2 1.914-1.469 4.646-4.64 5.05-5.863.247-.749.713-1.337 1.06-1.337.43 0 .503-.151.236-.5 0 0 11.982 16.2 16.81 11.75-.22.136-16.525-16.317-16.525-16.701 0-1.036-1.25-5.826-1.648-6.321l-2.17-2.728c-1.784-1.696-1.67-5.107-6.412-6.7-6.883-3-12.308-1.555-16.07-.4m20.68 9.388c.81.5.535 9.584-.312 10.351-.403.364-.853.542-1 .395s-.268-.032-.268.255.3.742.665 1.009c.792.579.46 1.802-.49 1.802-.663 0-3.065-1.515-3.307-2.086-.25-.591-1.49-.315-2.174.486-.608.71-1.18.8-5.095.8-4.31 0-5.338.234-6.745 1.533-.597.552-2.222 1.267-2.88 1.267-.206 0-.374-.69-.374-1.533s-.113-1.647-.252-1.785c-.342-.343-.32-10.479.024-11.037.158-.255 1.418-.445 2.955-.445 2.12 0 2.772-.146 3.118-.7.446-.715 15.027-.997 16.135-.312m-4.706 1.334c-2.663.152-2.62.992.067 1.278 2.375.253 2.602.961.36 1.123-1.175.085-1.7.305-1.7.713 0 .324-.27.693-.6.819-1.513.581-.476 1.046 1.8.808 2.253-.235 2.4-.199 2.4.591 0 .782-.172.83-2.4.669-2.593-.188-3.623.883-1.4 1.444.556.139 1.378.621 1.828 1.071l.818.818.953-1.028c.524-.565 1.14-1.028 1.372-1.028.26 0 .42-1.343.42-3.553 0-4.052.1-3.956-3.926-3.725m-16.874 5.721v4.844l.967-.243c.582-.146 1.03-.055 1.124.228.102.307.355.343.733.103.317-.202 2.68-.305 5.25-.23l4.674.138.238-1.342c.192-1.084.132-4.287-.147-7.841-.03-.378-1.607-.5-6.44-.5h-6.4v4.843m11.5-2.515c.275.04.5.522.5 1.072v1h-4.95c-5.23 0-7.003-.574-5.388-1.743.525-.38 7.8-.624 9.84-.329m-2.394 3.672c.095.501-.547.6-3.896.6-3.774 0-4.617-.259-3.73-1.147.587-.588 7.502-.092 7.625.547M172 126.743c-.001.373-.3.469-.957.304-.842-.212-.988-.073-1.218 1.156-.163.869-.492 1.397-.87 1.397-.427 0-.533.239-.355.8s.072.8-.36.8c-.385 0-.528.227-.383.605.128.333.05.828-.174 1.1s-.473.945-.554 1.495-.336.966-.566.924c-.24-.043-.347.404-.252 1.053.09.621-.03 1.25-.273 1.399s-.438.698-.438 1.219-.27 1.218-.6 1.548c-.762.762-.77 1.457-.018 1.457.348 0 .687.562.844 1.4.145.77.436 1.4.647 1.4s.114.27-.216.6-.806.6-1.057.6c-.8 0-1.533 1.038-1.822 2.574-.153.82-.506 1.577-.784 1.684s-.414.546-.296.994c.115.44.02 1.194-.213 1.674a10.8 10.8 0 0 0-.666 1.99c-.133.614-.372 1.037-.53.939s-.288 1.064-.288 2.583c0 1.791.16 2.762.453 2.762.42 0 1.09 1.417 1 2.1-.024.165.184.3.46.3.74 0 1.57 1.534 1.297 2.395-.376 1.186 17.988 1.147 18.623-.039.23-.428.587-.673.796-.544s.38-.038.38-.372c0-.883 1.33-3.419 1.8-3.429.607-.014.513-6.139-.1-6.531-.275-.176-.5-.84-.5-1.476s-.16-1.255-.355-1.376-.477-.872-.626-1.669c-.173-.92-.92-2.144-2.046-3.346-1.81-1.937-2.267-3.213-1.146-3.213.445 0 .553-.232.373-.8-.17-.532-.072-.8.29-.8.69 0 .7-2.08.01-2.52-.275-.176-.5-.84-.5-1.476s-.18-1.268-.4-1.404-.4-.599-.4-1.029a3.88 3.88 0 0 0-.353-1.476c-.195-.382-.536-1.145-.76-1.695s-.694-1.657-1.046-2.46-.64-1.659-.64-1.9-.27-.44-.6-.44a.6.6 0 0 1-.6-.6.6.6 0 0 0-.6-.6c-.33 0-.6-.149-.6-.33s-.63-.317-1.4-.3c-.896.019-1.4.225-1.4.573m-19.2 4.057c0 .22-.276.4-.614.4-.506 0-.532.153-.15.867l.464.867.536-.967c.65-1.173.69-1.567.164-1.567a.4.4 0 0 0-.4.4m1.264 1.019c-.255.56-.46 1.325-.455 1.7.012.941 1.57-1.046 1.582-2.019.013-1.025-.592-.854-1.127.319m103.136 1.113c0 .667-1.777 1.653-2.346 1.302-.232-.144-.744-.084-1.138.132s-1.57.503-2.616.638c-2.39.308-2.374.557.122 1.782 1.67.82 2.14.905 2.788.5 1.267-.791 4.378-.169 4.387.878.002.2.816-.498 1.81-1.55 1.876-1.987 1.92-3.014.13-3.014-.42 0-.867-.27-.993-.6-.285-.743-2.145-.801-2.145-.068m-10.603 4.853c-.796.615-.796.616.003 1.115 1.483.927 2.628 1.092 2.887.417.595-1.549-1.458-2.637-2.9-1.532m-69.072 2.915c.097 1.004-.028 1.3-.552 1.3-.55 0-.635.262-.45 1.4.17 1.053.085 1.4-.345 1.4-.314 0-1.084.537-1.71 1.193-1.173 1.227-3.255 1.05-3.264-.279-.002-.267-.38-.688-.843-.935-.658-.353-.805-.741-.68-1.803.1-.862-.03-1.425-.36-1.552-.655-.251-.667-1.115-.025-1.757.34-.34 1.68-.458 4.3-.38l3.807.113.125 1.3m79.08-1.109c-.133.216.154.927.638 1.582.93 1.258 1.113 3.317.373 4.208-.327.394-.267.591.242.786.373.143.81.048.97-.212s.6-.353.977-.208c.902.346.03 1.799-1.546 2.575-1.298.639-1.355 1.189-.154 1.49.992.249 3.895-.796 3.895-1.402 0-.208.387-.74.86-1.181.71-.662.772-.907.355-1.41-.613-.738-.273-1.819.57-1.819.426 0 .613-.4.613-1.309 0-1.299-3.518-2.95-3.933-1.846a.6.6 0 0 1-.524.355c-.215 0-.28-.178-.146-.395.138-.223-.014-.297-.346-.169-.35.134-.77-.112-1.034-.605-.468-.875-1.403-1.101-1.812-.44m8.696.509l.718 1.986c.414 1.156.65 1.39 1.056 1.051.7-.58.663-1.562-.098-2.648-.655-.935-1.996-1.247-1.676-.389m-73.148.479c-.123.319.153.983.612 1.476s.835 1.057.835 1.254.225.282.5.189c.91-.306.6-2.45-.446-2.998-1.186-.627-1.23-.625-1.5.079m-1.363 1.842c-.413.265-.456.469-.144.679.245.165.56.66.7 1.1.244.768 2.2 1.988 2.58 1.608.205-.205-.917-2.018-1.903-3.077-.45-.483-.82-.576-1.232-.31m-91.89 1.163c-.76.965-.792 1.113-.2.958.385-.101.907-.624 1.16-1.163.616-1.304.15-1.205-.96.205m151.556-.828c-.378.24-.408.427-.1.618.508.313 1.243-.04 1.243-.598 0-.465-.43-.472-1.143-.02M247.2 144.6c0 .622.227 1 .6 1 .646 0 .74-.366.357-1.367-.373-.974-.957-.75-.957.367m-156 1.124c0 .372-.27.676-.6.676s-.6.261-.6.58-.306.751-.68.961c-1.003.561-.886 2.893.2 3.979.484.484.88 1.021.88 1.193 0 .555 3.547.507 3.885-.052.173-.287.63-.637 1.015-.779.406-.149.7-.668.7-1.237 0-.539.103-1.248.23-1.575.336-.878-2.37-3.544-3.254-3.205-.44.169-.887-.003-1.233-.476-.483-.662-.542-.669-.542-.065m159.2.476c0 .33.18.6.4.6s.4-.27.4-.6-.18-.6-.4-.6-.4.27-.4.6m-3.2 1.205c0 .477-.324.553-1.542.358-1.836-.294-2.064.15-1.75 3.411.215 2.238.73 2.755 2.045 2.052.67-.359.89-.294 1.245.369.452.844 1.576 1.064 2.223.436.21-.203.92-.428 1.58-.5 2.005-.219 1.75-2.179-.26-2.004-1.8.155-2.237-.43-1.155-1.512.86-.86 1.067-1.615.442-1.615-.205 0-.487-.36-.627-.8-.306-.966-2.2-1.134-2.2-.195M93.92 148.48c1.237 1.237-.23 3.856-1.87 3.336-.922-.293-1.602-1.898-.902-2.132.25-.083.453-.496.453-.917 0-.884 1.533-1.074 2.32-.287m87.52 1.61l1.076.491-.24 5.603c-.143 3.329-.4 5.661-.658 5.743-.23.077-.418.665-.418 1.306v1.167l-7.6.067-8.3.1c-.493.023-.653-.203-.54-.767.42-2.115.473-8.667.068-8.417-.748.462-.53-4.205.235-5.052.825-.912 14.463-1.112 16.377-.241m-32.593.81c-.04.951.103 1.096 1.054 1.073 1.066-.026 1.073-.04.22-.453-.484-.234-.958-.716-1.053-1.073s-.194-.152-.22.453m64.992 4.85c-.153.248 21.22 2.025 25.29.588 1.153-.408-.214-4.368-.214-4.588s-44.202-5.088-45.288-5.088.85 6.993.714 7.213m66.762-1.599c-.918.24-.998 3.124-.096 3.47.974.374 3.123-.187 4.096-1.069 1.015-.921 1.187-1.562.33-1.233-.326.125-.76-.137-1.014-.613-.434-.811-1.595-1.005-3.317-.555m-112.64.504c.172.516.72.608.77.13.016-.159-.186-.362-.45-.45s-.408.056-.32.32m119.47 1.62c.176 1.845 1.442 2.284 2.027.702.283-.766-1.103-2.302-2.078-2.302-.056 0-.032.72.05 1.6m-26.345-.583c-.364.438-.388.741-.084 1.045.573.573 1.298.078 1.298-.886 0-.934-.515-1.001-1.214-.159m1.083 1.956c-.64.404.715 1.827 1.737 1.827.313 0 .393.349.23 1-.218.868-.12 1 .756 1 .555 0 1.008.18 1.008.4 0 .98 1.532.292 2.228-1 .84-1.561.962-1.6 2.85-.918 1.412.511 1.572 1.279.288 1.375l-1.22.1c-1.15.108-1.86 2.09-1.326 3.705.568 1.72 1.25 1.785 3.18.304.55-.422 1.674-1.079 2.497-1.46 1.092-.505 1.44-.877 1.28-1.375-.222-.699 1.082-1.738 1.57-1.25.14.139.253.053.253-.191s-.18-.554-.4-.69-.4-.691-.4-1.234c0-1.712-5.1-2.558-8.064-1.337-.794.327-1.296.314-1.98-.052-1.116-.598-3.68-.714-4.487-.204m-1.254 3.403c-.128.207.083 1.107.47 2 .953 2.199 3.715 2.514 3.715.424 0-.932-.178-1.2-.797-1.2-.438 0-1.02-.36-1.296-.8-.52-.835-1.692-1.072-2.092-.424m15.685 2.727c-.702.156-1.01 1.297-.35 1.297.4 0 1.445-1.158 1.206-1.336-.086-.064-.472-.047-.857.039m-170.988 2.89c-.488.205-1.004.832-1.145 1.395s-.54 1.18-.884 1.373c-.762.427-.034 1.347 1.436 1.813.484.154.88.536.88.848 0 .687 1.56.605 2.33-.122.3-.275.858-.5 1.262-.5.537 0 .678-.215.525-.8-.146-.556-.012-.8.437-.8.826 0 .84-.64.022-.954-.344-.132-.53-.398-.4-.59.658-1.064-2.8-2.356-4.453-1.663m2.224 2.226c.67 1.473.583 1.781-.512 1.781-1.27 0-1.544-.5-.965-1.77.59-1.293.892-1.295 1.477-.011m75.662.514c.22.074.402.479.402.9 0 .733.394.767 8.8.767 5.077 0 8.8-.155 8.8-.367 0-.202.092-.607.204-.9.166-.435-1.534-.533-9.202-.533-5.174 0-9.225.06-9.004.133m47.388 70.337c3.895-2.24-.318-3.838 3.413 2.321.314-4.414-.176-40.53.232-40.295 1.848 1.061-5.902-6.153-5.9-.818m-3.867 40.164c-29.73 41.864 39.87 35.619 20.048 3.162-.647-.894-8.07-5.591-11.607-5.439m-.3 6.495c.437.582.74 1.134.674 1.226s.353.539.93.994c.776.611 1 1.065.82 1.741-.137.546-.03.995.27 1.116.395.161.392.279-.015.566-1.564 1.103-1.06 3.1 1.4 5.553l2.373 2.367-.06 5.379-1.297.244c-2.46.461-4.083-.35-4.097-2.045-.024-2.919-3.61-3.508-4.237-.695-.515 2.319-.627 2.47-2.02 2.731-3.375.633-5.137-1.097-4.222-4.149.56-1.875 3.538-4.984 4.485-4.683.54.171.64-.09.578-1.542-.086-2.07-.405-2.708-1.2-2.403-1.124.431-1.158-1.082-.048-2.112.58-.538 1.057-1.229 1.057-1.534s.45-.909 1-1.342 1-.949 1-1.149c0-1.446 1.596-1.607 2.605-.263m-2.105 2.918c-1.053.879-1.128 1.452-.3 2.28 1.436 1.436.786 4.083-1.56 6.356-3.184 3.084-3.976 4.987-2.076 4.987.77 0 .92-.162.75-.814-.155-.592.243-1.247 1.455-2.4 1.715-1.632 3.633-2.152 3.633-.986 0 .33.158.555.352.5.493-.14 2.448 2.021 2.448 2.707 0 .643 1.44 1.539 1.96 1.218.648-.401.765-1.768.17-1.996-.32-.123-.47-.405-.332-.626s.06-.403-.17-.403c-.802 0-2.028-1.384-2.028-2.289 0-.54-.242-.911-.595-.911-2.274 0-3.013-3.713-1.13-5.678.853-.89.936-1.122.403-1.122-.37 0-.896-.36-1.17-.8-.605-.969-.672-.97-1.807-.023"/><path fill="#2da7db" d="M166.483 43.417c-.36.409-1.1.542-2.48.44-1.355-.1-2.023.017-2.162.377-9.227 2.789-28.572 10.724-26.242 24.366 0 .99-.183 1.8-.406 1.8-.252 0-.382 1.482-.34 3.9.123 7.189-25.214 8.15-27.06 8.15-1.333 0 1.088 2.633 1.088 3.3 0 .693 12.488.035 13.313-.138L135.6 82.8v1.6c1.196 4.315 3.558 8.78 6.8 12 2.522 2.487 3.57 4.4 2.412 4.4-1.464 0-11.38 11.202-10.433 11.787.785.485 2.207 4.2 2.207 3.153 1.383-.826 8.2-8.843 9.78-9.195 4.954-5.988 9.602-1.053 23.035 1.8 3.63-.028 6.6-.207 6.6-.398 5.708-.82 10.17-2.53 14.8-5.547 0-1.076 2.444 1.56 4.088 5.3 2.18 4.964 13.088 10.691 13.088 9.395 0-.34-7.886-14.112-10.093-14.114l-4.72-2.184 2.82-2.78c1.55-1.529 2.818-3.018 2.818-3.31s.36-.791.8-1.108c2.553-3.669 4.155-8.152 4.535-11.978.074-.758.344-1.448.6-1.534 2.483-8.145-1.843-13.624-2.935-18.488.184-.579.072-.8-.406-.8 5.856-4.26 12.97-8.723 19.052-11.6.862 0 1.3-1.141.712-1.851-.53-.637-1.558-.735-1.558-.149 0 .22-.36.4-.8.4-2.715 1.287-5.365 2.683-8 4.4-3.175 2.067-7.645 3.409-10.554 5.825-.132.344-.414.519-.626.388s-.288-.491-.17-.799c-3.806-5.807-16.326-14.341-23.078-13.721-1.397.134-2.196.026-2.57-.349-.78-.781-6.616-.723-7.318.073m88.163 1.683a15.73 15.73 0 0 1-.48 1.2c-.16.342.156.5 1 .5.678 0 1.233.18 1.233.4s.54.4 1.2.4 1.2.18 1.2.4c6.08 3.026 14.693 6.069 20.8 8.4.44 0 .8.18.8.4s.283.4.63.4c.876 0 2.128 1.281 1.467 1.501-1.137 3.722.41 14.358 6.007 16.899 2.884 2.249 7.224 2.147 8.804 2.712 10.826 1.752 5.595-4.548 11.093 2.488.44.317.8.857.8 1.2 5.874 13.032 5.664 12.704 15.2 24.773 0 .882 1.217 1.402 2.4 1.027.82-.261 1.117-1 .4-1-.815-1.558-1.588-2.413-2.29-3.86 0-.391-.87-1.823-1.31-2.14-5.76-12.035-4.47-9.411-9.07-15.362 0-.392-2.3-3.438-2.53-3.438s-.4-.32-.4-.712c-.687-1.09-1.392-2.356-2-3.288-.22 0-.4-.463-.4-1.029 0-1.07.81-2.171 1.6-2.171.595 0 1.6-1.012 1.6-1.611 2.64-3.634 4.124-7.386 3.6-12.389-.22 0-.4-.81-.4-1.8s-.18-1.8-.4-1.8-.4-.288-.4-.64c-2.73-3.678-6.012-7.361-10-8.16-.66 0-1.2-.18-1.2-.4 0-.242-1.733-.4-4.4-.4s-2.696-.694-5.933-.026c-3.55 1.454-3.348.33-8.27 2.559-6.113 1.802-16.4-3.612-22.14-7.174-3.638-2.219-2.435-2.706-5.945-.8s-2.005 2.206-2.265 2.941M117 51.6c-.245.397-2.432 1.579-1.635 1.675.228.028 5.932 5.156 8.357 5.314 22.767 11.653 16.307-2.212-5.448-10.389-.427 0-1.138 3.18-1.274 3.4m73.72 2.08c.704.704.685 23.74-.02 24.196-.275.178-3.38.414-6.9.524l-6.4.2.16 5.815-9.08-.108c-8.836-.104-9.077-.129-8.93-.907.083-.44.173-1.7.2-2.8l.05-2-6.38-.111c-8.642-.149-7.82 1.189-7.82-12.728 0-11.24.006-11.32.89-11.938 1.17-.821 43.417-.957 44.23-.143m108.48 2.37c0 .192.37.35.824.35s.712-.18.576-.4-.057-.4.176-.4.424.36.424.8c0 .733.267.8 3.2.8 1.867 0 3.2.167 3.2.4 0 .255-3.2.4-8.8.4s-8.8-.145-8.8-.4c0-.237 1.467-.4 3.6-.4 3.253 0 3.6-.072 3.6-.75 0-.533.29-.75 1-.75.55 0 1 .158 1 .35m-10.027 7.145c-.036 2.426-.224 4.297-.42 4.176s-.354-1.018-.354-1.995c0-1.457-.132-1.776-.735-1.776-1.72 0-.873-4.748.854-4.785.653-.014.713.388.654 4.38M310 59.2c0 .22.36.4.8.4.67 0 .8.267.8 1.643 0 1.32-.122 1.596-.62 1.404-.358-.137-.517-.07-.374.161.22.355-.662 1.592-1.134 1.592-.103 0-.187-1.26-.187-2.8s.16-2.8.358-2.8.358.18.358.4m-8 2.4c0 .22-.36.4-.8.4s-.8-.18-.8-.4.36-.4.8-.4.8.18.8.4M52.4 62.64c0 .351.54 1.143 1.2 1.76s1.2 1.409 1.2 1.76.18.64.4.64.4.36.4.8.18.8.4.8.4.36.4.8c0 .711.267.8 2.4.8 1.333 0 2.4.178 2.4.4s.278.4.618.4c.8 0 2.582 1.782 2.582 2.582 0 .34.18.618.4.618s.4.36.4.8.18.8.4.8.4.463.4 1.029c0 1.157.827 2.171 1.77 2.171.362 0 .63.339.63.8 0 .44.18.8.4.8s.4.45.4 1-.152 1-.34 1c-1.116 0-2.146 1.62-1.892 2.976.334 1.782-.554 3.583-2.288 4.64-3.1 1.89-6.896-.165-7.18-3.888l-.116-1.528-4.387-.114c-2.413-.063-4.56-.288-4.772-.5s-.575-.383-.806-.38-.15.181.18.394c.405.262-.997.39-4.324.394-3.182.004-4.836-.135-4.676-.394.136-.22.057-.4-.176-.4S38 83.78 38 84s-.35.4-.776.4-.888-.18-1.024-.4-.783-.4-1.437-.4c-1.3 0-3.963-2.276-3.963-3.387 0-.337-.18-.613-.4-.613s-.4-.72-.4-1.6.18-1.6.4-1.6.4-.36.4-.8.18-.8.4-.8.4-.36.4-.8c0-.533.267-.8.8-.8.44 0 .8-.18.8-.4s.283-.4.63-.4c.808 0 1.77-.963 1.77-1.771 0-.346.18-.629.4-.629s.4-.9.4-2c0-1.733-.107-2-.8-2-.44 0-.8.18-.8.4s-.273.4-.607.4c-.74 0-5.793 4.976-5.793 5.704 0 .286-.354.775-.788 1.087-.547.395-.717.848-.557 1.485.157.626.026.995-.413 1.163-.353.136-.642.677-.642 1.204s-.155.957-.345.957-.253.478-.14 1.063c.124.646-.016 1.233-.355 1.5-.835.653-.907 10.095-.08 10.412.415.159.51.559.332 1.374-.19.861-.085 1.214.414 1.405.428.164.592.54.458 1.051-.138.528-.01.795.38.795.408 0 .512.247.336.8-.185.583-.072.8.416.8.5 0 .612.234.44.921-.166.66.01 1.084.622 1.5.47.318 1.1.849 1.4 1.179 3.215 3.538 5.388 5.6 5.9 5.6.342 0 .622.18.622.4s.36.4.8.4.8.18.8.4.72.4 1.6.4h1.6V93.236L55 93l3.962 3.772-.23 10.828h1.546c1.088 0 1.718-.237 2.123-.8.317-.44.82-.8 1.114-.8.453 0 1.858-1.348 5.007-4.8.3-.33.93-.861 1.4-1.179.61-.415.788-.84.623-1.497-.157-.625-.026-.995.4-1.162.352-.135.54-.408.417-.607s.04-.461.358-.584c.33-.126.5-.54.39-.952-.105-.401.005-.85.244-.997s.435-.79.435-1.426.225-1.3.5-1.476c.753-.482.7-10.521-.045-10.52-.377 0-.492-.366-.372-1.185.1-.747-.02-1.259-.355-1.387-.3-.112-.528-.558-.528-.992s-.196-.91-.435-1.058-.34-.632-.224-1.075c.214-.817-.637-2.074-1.093-1.617-.137.136-.248-.156-.248-.648 0-1.045-.868-2.038-1.78-2.038-.35 0-.81-.452-1.02-1.006C66.707 68.502 64.21 66 63.413 66c-.337 0-.613-.18-.613-.4s-.36-.4-.8-.4-.8-.18-.8-.4-.36-.4-.8-.4-.8-.18-.8-.4-.54-.4-1.2-.4-1.2-.18-1.2-.4-.54-.4-1.2-.4-1.2-.18-1.2-.4-.54-.4-1.2-.4c-.833 0-1.2.196-1.2.64m244.4 6.16c0 .233-1.333.4-3.2.4s-3.2-.167-3.2-.4 1.333-.4 3.2-.4 3.2.167 3.2.4m10.8 0c0 .231-1.267.4-3 .4s-3-.169-3-.4 1.267-.4 3-.4 3 .169 3 .4m-40 9.2c-.44 0-.8.18-.8.4s-.36.4-.8.4c-2.246.927-4.23 2.375-6.4 3.2-.44 0-.8.18-.8.4s-.373.4-.83.4c-1.286 0-.808 1.372.532 1.527.604.069 1.097-.066 1.097-.3 2.175-1.542 22.114-9.769 23.642-12.199 2.726-1.067-.748.214.29-2.993m-95.018 19.484c4.674 4.617 6.348 4.264-20.76 4.384-27.346.122-25.613.449-21.567-4.071 3.223-3.602.824-3.262 22.015-3.115l17.6.122 2.713 2.68M196 87.037c0 .351.36.732.8.847 1.937.507.574 2.516-1.706 2.516-2.816 0-4.154-2.021-2.308-3.487.935-.743 3.214-.654 3.214.124M55.524 88.692c-.1.57-1.205.63-9.91.544-9.823-.097-10.627-.166-10.19-.875.46-.744 20.246-.418 20.1.331M35.6 93.6c0 .22.283.4.63.4 1.886 0 2.4 3.007.79 4.618-1.807 1.807-4.618.45-4.618-2.228 0-1.351.77-2.39 1.77-2.39.346 0 .63-.18.63-.4a.4.4 0 0 1 .8 0m28.72 2.08c1.174 1.174-.39 2.738-1.92 1.92-1.297-.694-.73-2.4.8-2.4a1.84 1.84 0 0 1 1.12.48M34 96.4c0 .622.267.8 1.2.8s1.2-.178 1.2-.8-.267-.8-1.2-.8-1.2.178-1.2.8m182.25 26.72c-1.522-3.271-8.157 2.835-3.754 2.482.84.525 28.918 16.732 28.55 15.773-.26-.681-24.476-18.773-24.796-18.256m-25.85 7.603c0 2.825.953 3.981 2.23 2.706 1.12-1.121.49-2.62-1.348-3.203-.702-.223-.88-.122-.88.497m86.66 4.812c-.626.691-.605.761.352 1.197 1.113.507 1.706-.128 1.244-1.332-.306-.798-.79-.757-1.596.135m-10.283.294c-.28.339-.346.585-.144.546 1.096-.208 3.768.079 3.768.405 0 .209-1.08.502-2.4.652-2.758.312-3.118 1.014-1.4 2.732 1.092 1.091 1.28 2.197.503 2.973-.395.395-.378.57.087.857.392.242.545.891.466 1.983-.147 2.031.7 2.184 2.344.423.617-.66 1.332-1.2 1.59-1.2.803 0 1.616-1.103 1.51-2.05-.092-.838 2.98-2.002 3.615-1.369.422.423-.48 1.019-1.54 1.019-1.04 0-1.176.139-1.176 1.2 0 1.401.9 1.588 2.82.59 2.083-1.078 1.074-5.348-1.276-5.403-.3-.007-.893-.277-1.32-.6s-1.373-.587-2.1-.587c-1.525 0-1.575-.097-.624-1.208.974-1.138.822-1.255-1.854-1.427-1.775-.114-2.486.001-2.87.464M160.543 137.1c.137.825.264 1.95.284 2.5s.127.775.238.5.367-.5.568-.5c.382 0 1.967-1.451 1.967-1.8 0-.11-.3-.2-.643-.2-.487 0-.583-.244-.393-1 .228-.908.136-1-1.01-1-1.233 0-1.254.032-1.012 1.5m91.147.496c.34.543.758.707 1.397.546.54-.135.913-.047.913.215 0 .243-.18.443-.4.443s-.4.54-.4 1.2-.18 1.2-.4 1.2a.4.4 0 0 0-.4.4c0 .22.822.4 1.826.4 2.455 0 3.45.56 3.145 1.772-.13.518-.04 1.061.197 1.208.258.16.45-.104.48-.656.08-1.564-.064-2.082-.91-3.263-.558-.777-.688-1.269-.408-1.549.642-.642.084-1.512-.97-1.512-.526 0-.957-.18-.957-.4s.2-.4.467-.4.346-.12.2-.267-.715-.028-1.263.265c-.77.413-1.223.43-1.997.078-.932-.425-.968-.404-.516.32m-6.718.975c-.433.317-.573.704-.37 1.03s.165.425-.105.258c-.235-.145-.488-.11-.562.079s-.944.609-1.934.935c-1.81.597-2.406 1.599-1.1 1.851.427.082.7-.111.7-.495 0-.481.433-.629 1.838-.629 1.024 0 2.357-.306 3.008-.691.936-.553 1.32-.597 1.924-.221.63.394.737.361.655-.199-.054-.369-.483-.764-.953-.88s-1.203-.51-1.63-.877c-.642-.552-.897-.58-1.47-.161m6.088 1.064c-.79 1.13-.576 1.432.488.687.5-.357.682-.749.477-1.082-.245-.395-.478-.3-.965.395m-177.217 2.198c-.566 1.473-.283 2.633.576 2.361.45-.143 1.08-.043 1.4.222 1.475 1.224-.227 1.892-2.01.789-4.584-2.833-9.65 3.775-5.358 6.988 1.107.829 1.955 1.156 2.772 1.07.965-.101 1.178.027 1.178.707 0 .496-.26.83-.643.83-.374 0-.556-.225-.436-.538.146-.381-.064-.485-.727-.359-.513.098-1.48-.144-2.147-.539-1.42-.838-3.247-.217-3.247 1.104 0 .402-.18.732-.4.732s-.4.461-.4 1.024c0 .58.173.916.4.776.22-.136.4.132.4.595 0 1.68 1.9 3.031 3.205 2.266.677-.4 1.992-.661 3.333-.661 1.218 0 2.326-.18 2.462-.4.393-.637.936-.468 1.423.443.6 1.12-.214 2.098-.95 1.142-1.103-1.434-7.873.161-7.873 1.854 0 .529-.18.961-.4.961s-.4.81-.4 1.8.18 1.8.4 1.8.4.278.4.618c0 .998 1.81 2.557 2.696 2.325.438-.114 1.076.087 1.444.455.55.55.757.571 1.246.131 1.336-1.205 1.8-1.529 2.197-1.529.23 0 .417-.27.417-.6 0-.804.65-.765.967.057.138.362.203.677.142.7s-.47.268-.91.544-1.205.676-1.7.89c-1.183.512-1.142 1.344.1 2.009.55.294 1 .73 1 .968.002.579 4.064.589 4.662.011.303-.293.44-1.964.4-4.851l-.063-4.403-1.07.79c-.857.633-1.5.753-3.3.604-1.227-.102-2.23-.035-2.23.148s-.27.333-.6.333-.6-.356-.6-.8c0-.722.267-.8 2.74-.8 4.702 0 5.167-.325 5.027-3.519l-.143-4.381c-.017-1.234-.19-1.7-.624-1.7-.33 0-.6.18-.6.4a.4.4 0 0 1-.4.4c-.886 0-.37-1.521.6-1.764 1.603-.403 1.508-3.495-.1-3.246-3.04.472-4.774.533-5.31.19-1.047-.673.315-1.113 2.763-.892 3.042.274 3.546-.308 3.808-4.4.162-2.522.092-3.088-.382-3.088-.32 0-.58-.27-.58-.6 0-.886-4.216-.856-4.557.033m189.857 2.179c-1.803.725-.91 2.122 1.6 2.507 1.386.213 1.5.157 1.5-.744 0-.609-.23-.975-.613-.975-.336 0-.716-.27-.842-.6-.26-.678-.388-.693-1.645-.188m-79.3 2.279c0 .546.242.909.608.909.448 0 .54.262.356 1-.2.756-.094 1 .393 1 .353 0 .643-.27.643-.6s.225-.601.5-.601c.292-.001.51-.544.526-1.309.025-1.254-.037-1.308-1.5-1.308-1.32 0-1.526.122-1.526.909m88.4-.644c0 .245-.327.361-.727.256-.516-.135-.88.152-1.247.983-.702 1.587-2.326 2.34-3.014 1.398-1.31-1.79-3.412-.228-3.412 2.535 0 1.42.663 1.519 2.18.326l1.087-.855 1.522.855c1.633.918 3.212 1.126 3.212.422 0-.238.63-1.201 1.4-2.141 1.595-1.946 1.887-3.479.6-3.142-.556.146-.8.012-.8-.437 0-.356-.18-.647-.4-.647s-.4.201-.4.447m-33.82.459c-.335.873-.087 1.993.485 2.183.78.26 1.092-1.503.4-2.205-.57-.568-.65-.566-.875.022m-3.763 1.362c-.926 1.177-.905 1.664.1 2.299 1.024.645 2.737-1.228 2.256-2.467-.465-1.198-1.33-1.137-2.357.168m7.742 1.647c-.704.456-1.36 1.945-1.36 3.087 0 1.077-.8 2.198-1.57 2.198-.814 0-.427 1.107.47 1.348 1.642.44 2.316.262 2.685-.709.2-.529.527-1.061.724-1.183.585-.361.063-2.599-.65-2.788-.575-.153-.57-.181.042-.222.746-.049.802-.248.372-1.331-.15-.378-.47-.558-.712-.4m-.16 4.861c0 .964-.725 1.459-1.298.886-.304-.304-.28-.607.084-1.045.7-.842 1.214-.775 1.214.159m-86.8 3.528c0 .167-.46.8-1.022 1.407-.84.905-.93 1.194-.5 1.618 1 .987 1.922 1.111 1.922.258 0-.52.27-.787.8-.787s.8-.267.8-.8c0-.444-.267-.8-.6-.8a.6.6 0 0 1-.6-.6c0-.33-.18-.6-.4-.6s-.4.137-.4.304m-56.4 8.325c0 .808-.996 2.453-.188 2.453.612.27 2.754 2.806 3.303 1.908 6.76 3.04 12.72 7.408 18.485 9.6.622 0 .8-2.056.8-2.989 0-.884 1.6-2.989 1.077-2.989-5.898-3.317-13.427-7.896-19.084-10.111-.8-.301-1.914-1.498-2.682-1.652-.824 0-1.71 3.349-1.71 3.781m72.4 27.01c0 .199-.63.361-1.4.361-2.438.544-7.477 3.179-7.8 5.986 0 .444-.36 1.032-.8 1.307s-.8.816-.8 1.203c-2.63 12.786 2.087 18.802 11.2 23.104 13.806 1.267 23.306-4.753 23.174-16.397-.034-2.685-.218-4.699-.418-4.576s-.356-.24-.356-.803c0-.757.208-1.024.8-1.024.44 0 .8-.18.8-.4 3.817-.915 7.046-3.629 10.757-4.4 1.294 0 1.927-.976 1.2-1.851-3.232-.534-10.426 2.882-13.558 4.651 0 .22-.283.4-.63.4-6.147-4.995-8.456-7.977-16.37-7.95-3.2.015-5.8.191-5.8.389m129.133 1.315c-7.508 4.104-12.653 11.357-10.014 19.196 1.49 3.911 6.054 9.128 6.882 8.804 5.483 3.219 17.074 3.472 21.012-.193 7.685-6.572 7.57-22.143 1.38-25.357-.22.136-5.495-3.925-13.32-3.224m9.487 5.983c-.113.294.073.641.414.771.915.351.897 16.987-.018 17.339-.33.127-.506.477-.39.779.175.454-1.265.548-8.363.548h-8.574l-.114-10.034-.047-10.1c.428-.429 17.26.258 17.093.697M172.4 199.2c0 .22-.36.4-.8.4s-.8-.18-.8-.4.36-.4.8-.4.8.18.8.4m5.123 1.13c-.935.084-6.442-.181-7.377-.265s6.3-1.816 8.152-1.567c4.6.619 7.037 1.618 6.102 1.702m-14.4 2.2v2.8c6.285-.202 9.535-.832 15.377.665 0 .253-3.42.135-7.777.135H170v2.8c.25 4.247 10.23 1.157 15.82 2.67.265 2.109-3.42.93-8.22.93H170v2.4c0 1.333-.178 2.4-.4 2.4-.255 0-.4-3.2-.4-8.8s.145-8.8.4-8.8c.23 0 .4 1.2.4 2.8m130.4-1.4v1.4h15.2v-2.8h-15.2v1.4m0 6.568v3.232h7.2v-1.353c0-1.066-.192-1.405-.9-1.595-1.648-.442-2.3-.286-2.3.548 0 .44-.18.8-.4.8s-.4-.36-.4-.8c0-.533-.267-.8-.8-.8-.44 0-.8-.18-.8-.4s.36-.4.8-.4c.525 0 .8-.267.8-.776 0-.911-.172-1.038-1.9-1.409l-1.3-.279v3.232m4.382-1.934c-.593 1.107-.3 1.315 1.4.996 1.05-.197 1.42-.469 1.42-1.048 0-1.131-2.207-1.09-2.818.052m4.118-.569c-1.928.778.806 1.735 4.956 1.735 1.594 0 1.744-.086 1.744-1 0-.98-4.79-1.505-6.7-.735m.2 3.078c-.762.594-.94 1.457-.3 1.457.22 0 .4.27.4.6 0 .483.622.6 3.2.6h3.2v-3.031l-2.9-.086c-1.955-.058-3.128.092-3.6.46m-8.77 6.757l-.13 3.3 3-.134c2.08-.093 3.1-.31 3.325-.708.178-.316.493-.47.7-.343.22.136.375-.934.375-2.591V211.6h-7.14l-.13 3.3m8.07-2.3c0 1.025.77 1.294 2.167.757 1.293-.496.743-1.757-.767-1.757-1.227 0-1.4.124-1.4 1m4.4-.472c0 .587 1.782 2.272 2.403 2.272.218 0 .397-.63.397-1.4 0-1.333-.067-1.4-1.4-1.4-.893 0-1.4.191-1.4.528m-6.496 1.383c.09.269-.122.489-.47.489-.822 0-.822 1.042 0 1.357.35.134.563.454.477.712-.22.66-1.942.713-2.2.067-.28-.731-1.32-.68-1.32.064a.6.6 0 0 1-.6.6c-.333 0-.6-.356-.6-.8s.267-.8.6-.8.6-.18.6-.4-.27-.4-.6-.4-.6-.337-.6-.749c0-.899 4.407-1.031 4.704-.14m-36.1 2.236c0 .547.116 4.264.692 4.264.604 0 18.833-3.42 20.144-4.43.787-4.317-.713-5.191-.713-5.191m23.247 5.539c-.973.643-.986.7-.3 1.371 1.257 1.231 2.315.911 2.315-.7 0-1.563-.443-1.71-2.015-.671m-4.732.03c-.544.344.665 2.046 1.447 2.038.87-.009 1.18-1.935.347-2.159-1.094-.293-1.146-.29-1.794.121M186.51 218.55c0 .22-7.415.024-8.295.024s-8.428-.489-8.428-.709-.937-1.881-.057-1.881 16.825.887 16.825 1.107m1.963 1.241c0 .173-1.3.187-1.75.22s-.053-2.763-.16-3.607c-.42-3.321-2.49-14.849-2.05-14.849s2.077-.124 2.52.469"/><path fill="#5da11e" d="M172.5 54.679l-9.7.528c0 .542 25.465.534 25.8-.007.146-.236-.297-.401-1.076-.403-.728-.002-2.224-.06-3.324-.129s-6.365-.064-11.7.011m17.1 11.04l.2 10.881.107-10.573c.06-5.815-.03-10.712-.2-10.881s-.217 4.589-.107 10.573m47.82-10.153c-.124.201-.028.432.214.512.377 7.071 1.315 13.17 1.165 19.522h-1.2c-2.103.696-4.24.98-6 2 0 .22-.32.4-.712.4s-.976.39-1.3.866c-.908 1.337-3.54 3.934-3.988 3.934-.22 0-.4.36-.4.8s.422 1.041.202 1.041-3.472-1.946-3.472-1.6c-5.744-.469-4.752.571-10.1-.045-.827.827-8.124-.265-6.47-.266.88 0-4.85 2.853 1.058 5.099 4.377.5 9.45.544 13.426.571.966 0 1.757.18 1.757.4s.27.4.6.4c.486 0 .6.644.6 3.4-.112 5.559 2.796 8.293 6 12.063 0 .295.348.537.773.537 9.258 5.259 17.06 5.965 23.953-1.2 5.602-3.374 8.9-14.081 4.474-18.557 0-.307-.267-.66-.593-.785s-.492-.493-.367-.818c.252-.658-3.872-5.04-4.743-5.04-.286 0-.78-.36-1.097-.8-2.414-1.179-5.503-2.452-7.9-2.352l-2.3.106c.014-6.463-1.53-13.389-1.404-18.254.06-2.246-1.258-3.417-2.175-1.934M146.914 57.8c.003 1.1.08 1.503.173.895s.1-1.509-.005-2-.17.005-.168 1.105m21.986 4.3c.177.531.735.554 7.8.323 4.076-.133 4.175-.156 1.9-.438-4.2-.521-9.9-.454-9.7.115m-21.95 4.3c0 2.53.065 3.565.145 2.3s.08-3.335 0-4.6-.145-.23-.145 2.3m25.48-2.033c-2.36.163-3.424.399-3.552.789-.197.594 5.1.43 9.92-.306l2.2-.337-1.8-.062c-1-.034-2.16-.119-2.6-.189s-2.316-.023-4.168.105m-24.89 12.537c.168.167 9.654.257 21.08.2L189.4 77l-21.08-.2c-11.594-.11-20.944-.063-20.777.104M102 82.433c-7.207 5.198-7.32 3.969-15.8 3.952-10.57-.03-12.015.04-12.13.591s1.228.624 12.103.624h12.233l1.256 1.2c2.037 2.49 7.404 3.947 8.737.2 0-.55.162-1 .36-1 .95 0 .218-3.422-.993-4.647-1.232-1.244-5.767-1.968-5.767-.92m148.334 1.517c.745.473.68 15.093-.07 15.843-.62.62-6.495.804-6.86.215-.164-.265.946-.408 3.17-.408H250v-7.2h-1.2c-.907 0-1.2.183-1.2.751 0 1.992-3.7 2.321-3.927.349-.198-1.725-2.473-1.633-2.473.1 0 1.565-.75 1.55-1.064-.022-.207-1.033-.406-1.202-1.3-1.1s-1.026-.018-.92-.778c.07-.495-.066-.9-.3-.9s-.425-.18-.425-.4c0-.646.74-.461 1.6.4 1.047 1.047 1.165 1.019 1.66-.4.34-.972.645-1.2 1.612-1.2.78 0 1.135.174 1.024.5-.094.275-.56.444-1.033.375-.646-.094-.863.083-.863.7 0 .674.253.825 1.376.825 1.46 0 2.077.554 1.89 1.7-.088.537.165.7 1.083.7 1 0 1.22-.173 1.325-1.1.104-.902.4-1.167 1.64-1.474l1.515-.374-.115-3.426c-.062-1.884-.25-3.381-.414-3.326s-2.1.1-4.3.1c-3.675 0-4 .062-4 .767 0 .421.225.847.5.945s.374.315.22.481c-.376.404-1.52-.773-1.52-1.564 0-.53-.63-.629-4-.629-3.498 0-4 .085-4 .68 0 .468-.13.551-.413.267-.227-.227-.298-.713-.157-1.08.283-.738 17.378-1.03 18.504-.317M61.325 85.7c.42.385 1.24.682 1.82.659.968-.037.948-.066-.242-.349-.713-.169-1.532-.466-1.818-.659s-.178-.036.24.349m170.13 6.5c-.02 3.63-.174 6.6-.345 6.6s-.31-2.97-.31-6.6.155-6.6.344-6.6.33 2.97.3 6.6M154.4 87.6c0 .44.18.8.4.8s.4-.36.4-.8-.18-.8-.4-.8-.4.36-.4.8m89.2-.167c0 .707-.86.584-1.108-.158-.087-.261.126-.475.475-.475s.633.285.633.633m-72.112 1.1c-.17.435-.045 1.079.312 1.589.503.717.6.745.6.167 0-.379.18-.689.4-.689s.4-.199.4-.443-.26-.343-.575-.222c-.34.13-.63-.057-.712-.457-.123-.611-.165-.605-.425.055m-23.724.325c-.143.232.12.805.587 1.271l.85.849v-1.046c0-1.085-.977-1.816-1.436-1.074m6.88 1.032c-.73.731.247.91 4.98.91 2.873 0 5.13-.151 5.016-.335s-1.294-.292-2.624-.239-2.523-.075-2.652-.285c-.142-.229-.458-.195-.8.089-.43.356-.698.357-1.125.002s-.604-.346-.748.051c-.147.408-.358.416-.996.041-.445-.263-.918-.368-1.052-.234M234.8 92c0 .22-.54.4-1.2.4-.68 0-1.157.194-1.1.45.055.248-.125.533-.4.633-.318.117-.5-.192-.5-.85 0-.939.146-1.033 1.6-1.033.88 0 1.6.18 1.6.4m4.276 3.781c-.77.77-1.076.784-1.076.048 0-.314.315-.64.7-.726.988-.22 1.1-.036.376.678m49.118 3.74c.44 4.802-32.7-.689-28.48-6.087M241.2 98.153c0 .617.282 1.028.8 1.163 1.23.321.948 1.084-.4 1.084-1.168 0-1.367-.29-1.307-1.9.01-.275-.142-.5-.337-.5s-.356-.18-.356-.4.36-.4.8-.4c.576 0 .8.267.8.953m-2.4 1.781c0 .183-1.62.369-3.6.413-2.262.05-3.6-.074-3.6-.334 0-.253 1.4-.413 3.6-.413 1.98 0 3.6.15 3.6.334m20.915-6.5c0-.632 28.412.542 28.48 6.087m-21.15 31.907c-.156.405-.513.541-1.007.384-.687-.218-.744-.082-.556 1.321.197 1.473-.5 2.81-.83 1.592-.656-2.415-.945-2.936-1.687-3.043-1.053-.152-2.032 1.714-1.338 2.55.35.423.154.815-.888 1.775-.823.758-1.043 1.121-.57.943.613-.23.715-.153.5.381l-.505 1.252c-.563 1.388 2.968 1.307 3.66-.084.763-1.53 1.91-2.557 2.646-2.365.39.103.663-.019.615-.275-.057-.304.723-.459 2.305-.459 1.958 0 2.416-.127 2.53-.7.145-.731 1.28-.997 1.28-.3 0 .22.27.4.6.4s.6.356.6.808c0 .932 1.653.759 2.875-.301.947-.822 1.653-.245 1.378 1.126-.24 1.208.53 2.367 1.576 2.367.314 0 .57.203.57.45 0 .287.436.363 1.2.21.9-.18 1.2-.092 1.2.35 0 .325.27.59.6.59s.6.331.6.736.45.941 1 1.191 1 .661 1 .911c0 .274.412.377 1.03.258.793-.151 1.127.013 1.446.713.228.5.79 1.077 1.247 1.281.765.341.83.68.776 4.086-.03 2.043.048 3.609.177 3.481s.703.098 1.278.502 1.45.862 1.945 1.015c.6.19.9.593.9 1.253 0 .762.21.973.967.973 1.374 0 2.272.412 1.97.904-.143.232-.07.302.165.157s.33-.622.215-1.061c-.146-.556-.012-.8.437-.8.356 0 .647-.281.647-.624s-.18-.512-.4-.376c-.227.14-.4-.196-.4-.776 0-1.119-.962-1.422-1.345-.424-.126.33-.615.6-1.085.6-.596 0-.786-.182-.625-.6.14-.365 0-.6-.358-.6-.712 0-.795-1.182-.087-1.243l1.195-.1c.963-.079.877-.854-.097-.868-.435-.007-.778-.166-.76-.356s-.21-.499-.503-.688c-.44-.283-.43-.413.055-.723.498-.32.513-.661.1-2.206-.27-1.005-.49-2.108-.49-2.45 0-.804-.965-1.766-1.77-1.766-.404 0-.63-.358-.63-1 0-.55-.18-1-.4-1s-.4-.445-.4-.99c0-1.039-1.828-1.103-3.095-.109-.716.562-1.03-.521-.53-1.832.326-.859.3-1.069-.184-1.069-.324 0-.6-.229-.6-.509 0-.324-.56-.509-1.547-.509-1.034 0-2.07-.363-3.122-1.091-.866-.6-1.885-1.091-2.265-1.091s-.787-.249-.903-.553-.928-.667-1.803-.807-1.693-.521-1.818-.847c-.243-.633-1.742-.835-1.742-.235s-3.263.743-3.488.157c-.292-.761-3.168-.668-3.467.113m-82.645 4.798c0 1.453.81 2.312 1.42 1.507.83-1.095.725-1.864-.22-1.617-.44.115-.7.046-.576-.153s.034-.363-.2-.363-.424.282-.424.626m99.2-.259c0 .821-.52 1.633-1.043 1.633-.666 0-.7-.205-.143-1.226.427-.797 1.186-1.058 1.186-.407m-96.685 1.728c-1.013 1.309-.92 1.905.298 1.905.895 0 1.187-.185 1.187-.751 0-1.059-.973-1.815-1.485-1.154m94.946 5.697c.287 3.439.71 4.208 2.3 4.208.566 0 1.03.18 1.03.4s.36.4.8.4.8.18.8.4.45.4 1 .4c.63 0 1-.226 1-.613 0-.336.27-.716.6-.842 1.685-.647-.56-3.345-2.782-3.345-1.045 0-1.418-.172-1.418-.653 0-.745-1.464-2.147-2.24-2.147-.286 0-.71-.315-.94-.7-.307-.508-.35.177-.157 2.492m-128.16-.794c-.58.66-.68 3.402-.123 3.402.652 0 1.623-1.73 1.623-2.889 0-1.201-.687-1.436-1.5-.513m-69.026.753c-.12.315-.772.695-1.447.843-.947.208-1.227.485-1.227 1.214 0 .52-.168 1.049-.373 1.175-.698.432 2.114 2.955 3.573 3.206 1.748.301 4.125-3.439 2.694-4.24a1.48 1.48 0 0 1-.694-1.156c0-.548-.188-.696-.658-.515-.392.15-.858-.022-1.153-.425-.4-.561-.532-.579-.715-.102m71.378.714c-.25.398-.452.957-.452 1.241s-.36.824-.8 1.201c-.926.793-1.06 1.893-.232 1.893.313 0 .7.553.838 1.228.19.867.445 1.161.865 1 .327-.125.76-.228.962-.228.553 0 .437-1.256-.235-2.546-.738-1.414-.738-1.454.002-1.454.33 0 .6.248.6.551 0 1.22 1.07 1.507 1.75.47.817-1.247.814-1.285-.118-1.529-.48-.125-.82-.622-.9-1.316-.156-1.33-1.57-1.647-2.28-.511M86.4 147.461c0 .661-.19.667-1.872.059-1.502-.544-1.7-1.095-.528-1.404.44-.115.8-.396.8-.624s.36.001.8.508.8 1.165.8 1.461M278 146.8c0 .667.267.8 1.6.8s1.6-.133 1.6-.8-.267-.8-1.6-.8-1.6.133-1.6.8m-3.115 2.326c-1.153 2.213-1.12 2.474.315 2.474 1.284 0 1.503-.826.845-3.186-.264-.947-.31-.919-1.16.712M192 151.74c0 .933.862 3.06 1.24 3.06.535 0 .438-2.563-.12-3.12-.635-.635-1.12-.609-1.12.06m-1.6 2.06c0 1.301.16 1.8.576 1.8.805 0 1.203-.781.67-1.315-.245-.245-.445-.859-.445-1.365s-.18-.92-.4-.92-.4.81-.4 1.8m-94.066-.214c-.564.558-1.14 1.34-1.277 1.739s-.433.614-.654.477c-.835-.516-.36.343.697 1.259 1.93 1.674 3.923 2.042 4.874.899 2.478-2.975-.924-7.062-3.64-4.374m174.566.284c-1.29.9-1.147 1.73.3 1.73 1.067 0 1.2-.133 1.2-1.2 0-1.351-.215-1.427-1.5-.53M84.8 154c0 .22-.377.4-.837.4s-1.294.36-1.854.8-.813.8-.563.8c.69 0 .545.758-.37 1.92l-.822 1.046.822.304c.83.306 1.167 1.53.423 1.53a.4.4 0 0 0-.4.4c0 .22.27.4.6.4a.6.6 0 0 1 .6.6c0 .373.378.6 1 .6.55 0 1 .18 1 .4s.54.4 1.2.4c.747 0 1.162-.189 1.1-.5-.068-.338.323-.459 1.203-.374 1.393.135 1.65-.163 1.863-2.17.07-.66.36-1.156.68-1.156.82 0 .905 1.999.136 3.173-.6.931-.612 1.04-.024 1.266.353.135.646.632.65 1.104.01 1.428.596 1.994 1.76 1.701.75-.188 1.118-.09 1.286.346.353.92 1.275.732 1.42-.29.082-.578.45-.946 1.028-1.028.83-.118 1.097-.684.93-1.972-.036-.275.144-.5.4-.5.267 0 .376-.339.255-.801-.115-.44-.046-.699.153-.576s.363.075.363-.108-.675-.664-1.5-1.069c-2.837-1.391-3.5-1.827-3.4-2.236.055-.225-.08-.41-.3-.41s-.4.36-.4.8c0 .533-.267.8-.8.8-.622 0-.8-.267-.8-1.2s-.178-1.2-.8-1.2c-.764 0-.992-.526-.88-2.035.034-.448-.547-.772-1.967-1.1-2.467-.57-3.153-.584-3.153-.065m13.78.864c1.228.56 1.297.994.213 1.338-.443.141-.702.423-.576.627s-.045.371-.38.371c-.773 0-1.51-1.344-1.194-2.171.29-.751.593-.777 1.937-.165m-11.312 1.827c.92.765.9 2.909-.03 2.909-.425 0-.838.194-.917.43-.087.261-.576.322-1.243.154-1.1-.276-1.222-1.264-.456-3.699.188-.597 1.83-.47 2.645.206m104.598.376c-.46.46-.292.933.333.933a.6.6 0 0 0 .6-.6c0-.625-.473-.794-.933-.333m-96.53 4.316c1.046.793.13 3.513-1.122 3.334-.96-.138-1.3-1.834-.625-3.097.513-.958.752-.99 1.747-.237M330 162.4c0 .22-.36.4-.8.4-11.518 6.834 1.616 13.326-12 30-1.354.976-.212 1.975 1.6 1.4.44-.14 3.628 5.272 3.628 4.895 3.644-6.143 5.433-21.084 11.005-21.095 5.11.063 8.416-2.633 8.51-7.933l.067-3.677-1.795-1.795c-.987-.987-2.07-1.795-2.405-1.795s-.61-.18-.61-.4c0-.237-1.467-.4-3.6-.4s-3.6.163-3.6.4m-64.788 8.588C265.43 160.675 254 199.16 254 199.6c0 .751-.267.8-4.367.8-4.99.61-14.08 1.484-16.833 6.868 0 .19-.63.958-1.4 1.706-6.497 6.585-4.045 25.739 5.247 28.063 6.134 4.07 24.685 4.786 31.505-5.618-.137-.358.032-.715.406-.858 6.005-7.607 2.846-22.322-6.646-26.961-.392 0-.712-.18-.712-.4s-.36-.4-.8-.4-.8-.18-.8-.4.715-1.107-.03-1.107c-.87 0 .155.405 0 0-.38-.992 7.227-27.618 7.67-27.618m-5.808 35.296c.91.911.832 14.843-.086 15.196-.362.138-.767.133-.9-.012s-.018-.345.257-.443c.81-.29.702-9.312-.113-9.312-.336 0-.716-.27-.842-.6-.493-1.283-4.6-.803-4.29.5.148.605.422 1.16.608 1.233s.338 1.808.338 3.854c0 3.383.072 3.739.8 3.929.492.129.8.546.8 1.084s-.308.955-.8 1.084c-.687.18-.8.546-.8 2.591 0 3.623.276 3.525-9.948 3.525-5.656 0-8.897-.149-9.062-.415-.448-.726-.196-15.296.275-15.863.244-.294 1.256-.522 2.318-.522h1.886l.088-2.5c.048-1.375.258-2.56.465-2.633s.378-.389.378-.7c0-.844 17.785-.839 18.63.004m-10.554.529l-7.324.118.25 2.582 17.4.216v-1.608c0-1.608 0-1.608-1.5-1.518-.825.05-4.796.144-8.825.21m-12.71 6.067c-.09.091-.166 1.036-.166 2.1v1.933h17.6v-3.97l-8.634-.115c-4.75-.063-8.71-.04-8.8.052M238 225.6v5.2h17.6v-10.4H238v5.2m5.6-2.4c0 .22.283.4.63.4 1.18 0 1.924 1.104 1.217 1.811-.68.679-2.246-.229-2.246-1.3 0-.281-.27-.511-.6-.511s-.6-.18-.6-.4.36-.4.8-.4.8.18.8.4m8.574 3.958c.295.477-.733.842-2.374.842-1.558 0-2.6-.338-2.6-.843 0-.467 4.686-.466 4.974.001"/></svg>