<svg xmlns="http://www.w3.org/2000/svg" xmlns:svg="http://www.w3.org/2000/svg" id="svg" width="400" height="711.111" version="1.1" viewBox="0 0 400 711.111"><metadata id="metadata15"/><g id="svgg"><path id="path0" fill="#d22e50" fill-rule="evenodd" stroke="none" d="m 226.34413,144.89405 c -0.5221,0.63832 -6.05461,12.24779 -6.05461,12.70357 0,0.45362 -2.01926,4.46818 -3.34205,6.64339 -16.24407,26.6814 -27.2965,63.71627 -65.79999,58.52583 -2.93693,-0.39206 -4.86369,-0.87808 -5.62396,-1.41919 -0.63588,-0.45362 -1.92145,-1.07249 -2.85718,-1.37599 -0.93573,-0.30349 -2.17983,-0.87484 -2.76467,-1.26906 -1.0176,-0.68691 -3.23145,-1.75508 -3.63552,-1.75508 -1.47484,0 1.99694,5.91221 5.03381,8.57021 8.27394,24.77605 7.91815,64.16621 -9.21164,81.59572 -2.67109,2.61264 -3.69402,3.92058 -3.88435,4.96823 -5.08929,143.5575 15.74577,199.66936 14.34675,323.27773 -0.13292,8.0885 -0.0712,10.25724 0.31263,10.9852 0.64757,1.23125 5.56227,1.39219 42.97453,1.41055 18.59765,0.008 44.43661,0.0238 57.41988,0.0335 12.98328,0.009 24.85005,-0.15877 26.37061,-0.3737 l 2.76467,-0.39098 0.28709,-2.59212 c 0.15738,-1.42566 0.49764,-6.3831 0.75497,-11.01652 8.55265,-91.25419 20.09261,-199.67235 28.06297,-293.39271 0.87726,-1.20642 0.94849,-1.81881 1.0527,-9.01303 0.0936,-6.47706 0.23075,-7.90273 0.85173,-8.86505 0.67096,-1.03901 1.32703,-9.95268 1.16967,-15.87028 -26.91427,-39.42887 -27.89357,-39.38625 -63.05342,-87.93886 -0.89745,-1.35762 -2.60835,-3.73158 -3.80354,-5.27605 -1.19411,-1.54447 -2.39143,-3.19695 -2.65938,-3.67217 -0.34771,-0.61563 -0.49764,-7.16831 -0.5221,-22.81825 l -0.0361,-21.95312 1.06014,-1.07681 c 1.85126,-1.88037 4.72225,-0.29485 4.72225,2.60723 0,2.00675 0.5338,2.33724 3.10173,1.9225 1.21859,-0.19657 2.53286,-0.25597 2.92204,-0.13069 0.49976,0.15877 0.99209,-0.28837 1.67369,-1.51962 1.00271,-1.81233 2.64237,-2.33076 4.20015,-1.32955 0.84748,0.54434 1.27281,-0.21926 1.28132,-2.29512 0.0128,-3.41295 1.31852,-4.91854 4.03746,-4.65717 1.65774,0.15984 1.70665,0.61239 1.92357,17.77548 0.22755,17.96018 0.22436,17.94181 2.33933,18.15243 2.82846,0.28298 3.12726,-0.7204 3.36864,-11.32434 0.2435,-10.65795 0.43384,-11.23469 3.50899,-10.65147 2.25319,0.42662 3.3899,18.53908 1.58755,25.26888 -1.03356,3.85795 -4.71162,7.43831 -8.31632,8.09715 -3.29313,0.60158 -3.01878,2.47979 0.76454,5.24041 1.29408,0.94396 2.82315,2.15362 3.39947,2.68825 0.57633,0.53462 1.18136,0.97421 1.34512,0.97528 0.16269,0.002 0.96657,0.64155 1.78533,1.42135 13.65232,11.82046 28.55391,21.7323 41.1339,33.72676 l 1.79065,1.71621 0.44023,-1.17619 c 0.44021,-1.17508 -0.22969,-6.79028 -1.19945,-10.06715 -8.16683,-34.51554 0.93161,-62.82752 -28.02409,-83.0916 -12.1113,-3.31075 -26.36903,-7.01931 -38.74992,-8.64905 -2.02139,-0.25812 -4.52341,-0.74847 -5.55909,-1.08976 -1.03569,-0.34129 -2.60835,-0.62104 -3.49305,-0.62104 -0.88575,0 -2.62217,-0.37369 -3.85883,-0.82947 -3.36224,-1.2399 -4.80624,-1.45699 -5.33898,-0.80464" style="stroke-width:1.07166;fill:#ff6768;fill-opacity:1"/><path id="path3" fill="#f9cb56" fill-rule="evenodd" stroke="none" d="m 193.8349,59.527885 c -11.31384,1.783158 -24.08019,12.269382 -26.33871,21.6345 -0.67522,2.801653 -2.4244,6.276184 -3.05283,6.065578 -0.28072,-0.09502 -0.67521,-1.272302 -0.87724,-2.616971 -0.4466,-2.97662 -1.48548,-3.033866 -4.31181,-0.237609 l -1.70133,1.683801 -0.12973,21.919636 c -0.083,14.17999 0.0256,22.45859 0.30943,23.44899 1.53439,5.3495 8.75653,6.23299 12.14218,1.48508 2.62962,-3.68729 3.63233,-2.9453 3.62171,2.68069 -0.005,2.32859 0.2871,4.28997 0.93785,6.32046 1.32811,4.1474 -0.0234,5.38838 -6.61499,6.0742 -1.55777,0.16201 -3.35587,0.49682 -3.99492,0.74416 -0.63906,0.24626 -3.07728,0.81651 -5.41875,1.26691 -2.34038,0.45038 -6.83934,1.32089 -9.99743,1.93436 -3.1581,0.61455 -6.92441,1.2993 -8.36842,1.52288 -5.85683,0.904 -13.04281,4.73062 -17.15153,9.13183 -3.64404,3.90438 -4.47875,3.32548 -4.3267,-3.00038 0.1393,-5.8204 0.0712,-5.68972 3.81417,-7.26335 3.48347,-1.46455 4.34477,-2.20762 5.86853,-5.07301 l 1.18881,-2.23353 0.13184,-10.65256 c 0.16057,-12.95305 0.0202,-13.92942 -2.015,-14.08495 -2.75297,-0.21168 -2.72533,-0.30888 -2.96032,10.7152 -0.23606,11.0716 -0.33282,11.41506 -3.14745,11.1256 -2.82421,-0.29161 -2.87207,-0.59942 -2.82316,-17.91913 0.0521,-18.76481 -0.01,-19.04346 -3.98323,-17.94289 -1.65667,0.45902 -1.80129,0.41906 -2.93373,-0.79275 -2.09157,-2.23787 -3.79929,-1.61469 -4.31713,1.57579 l -0.28709,1.7702 -1.83425,-0.42662 c -2.79975,-0.65127 -3.94177,-0.18252 -4.54574,1.86417 -0.68798,2.33183 -1.318528,2.80489 -2.28723,1.71728 -0.947431,-1.06384 -1.95972,-1.09733 -3.165529,-0.10471 l -0.921913,0.75819 0.0191,26.99913 c 0.0191,25.21163 0.327508,34.92238 1.31428,41.25579 0.222237,1.42568 0.607158,5.02224 0.857042,7.99239 0.429579,5.12592 0.765594,8.60477 1.687506,17.49682 0.222237,2.1385 0.600781,6.31831 0.843218,9.28845 0.241379,2.97014 0.626311,6.66391 0.854925,8.20839 0.229671,1.54448 0.607151,5.94461 0.838961,9.7777 0.23181,3.8331 0.61035,7.47504 0.84215,8.0939 0.23074,0.6178 0.62524,4.67447 0.8762,9.0152 0.25094,4.33964 0.64862,8.62637 0.88574,9.52605 0.23606,0.89968 0.69436,5.21664 1.01868,9.5941 1.16966,15.81303 6.99884,24.80013 16.86868,26.00872 3.77164,0.46117 5.04126,3.81798 5.04126,13.3235 0,1.29823 0.14354,2.35451 0.31899,2.34588 1.19625,-0.0573 8.32695,-6.82701 10.43979,-9.91164 1.3717,-2.00349 1.87252,-2.66233 3.7493,-4.93152 7.97255,-22.3829 13.83193,-63.0856 -4.78393,-77.41483 -0.49975,-0.31429 -0.46679,-2.33939 0.0383,-2.33939 0.58909,0 2.61793,0.92561 3.8482,1.75508 0.58484,0.39422 1.82893,0.96773 2.76466,1.27447 3.65779,1.93867 7.24906,2.35356 11.27131,3.0803 35.88955,3.68158 52.50069,-40.72805 66.83781,-67.26128 0.38387,-0.70203 1.76514,-3.45616 3.06984,-6.12173 1.30364,-2.66448 2.73595,-5.21664 3.18255,-5.67027 0.98464,-1.00013 1.76832,-5.21232 1.76832,-9.50012 0,-1.77669 0.18183,-3.09651 0.42533,-3.09651 0.23394,0 0.42534,0.25164 0.42534,0.56054 0,0.80248 2.97201,3.62465 4.3873,4.16576 3.92689,1.50128 8.60873,-0.56379 10.04742,-4.43037 0.76985,-2.07046 0.61035,-43.871688 -0.17545,-45.780141 -1.24304,-3.024139 -5.09336,-5.278207 -5.507,-3.226108 -0.10842,0.534628 -0.41682,1.986216 -0.68585,3.226108 l -0.48913,2.254068 -0.98783,-1.192373 c -0.54336,-0.656668 -1.42486,-2.740088 -1.95865,-4.630177 -0.53274,-1.891177 -1.09842,-3.535007 -1.25474,-3.653817 -0.15631,-0.11881 -0.67947,-1.006603 -1.16115,-1.973259 -0.48276,-0.965556 -1.17817,-2.011052 -1.5461,-2.321028 -0.3679,-0.309976 -0.66882,-0.732278 -0.66882,-0.938566 0,-0.522737 -5.89512,-6.531068 -7.40186,-7.545232 -6.24707,-4.203568 -9.80178,-5.496387 -17.66193,-6.427392 -6.35127,-0.751707 -5.76644,-0.752795 -10.74815,0.03242 m 29.21929,23.76977 c 5.2454,2.355591 7.21576,8.683613 2.97731,9.561691 -1.46738,0.303492 -1.7077,0.514099 -1.74386,1.529351 -0.0245,0.646954 -0.1201,1.239905 -0.21266,1.317668 -4.08319,3.410802 -9.78796,2.653687 -10.2452,-1.358715 -0.0882,-0.777632 -0.41682,-1.209648 -0.98357,-1.294972 -3.44732,-0.520583 -3.98219,-1.314426 -2.78913,-4.142003 2.32125,-5.49854 7.89312,-7.904893 12.99711,-5.61302 m -36.5786,0.318614 c 5.56547,2.665567 7.23065,9.341358 2.32976,9.341358 -1.23559,0 -2.11603,0.708519 -2.12029,1.706484 -0.004,0.764675 -2.34038,2.487357 -3.61213,2.662325 -1.78746,0.246258 -4.89132,-1.583355 -4.89132,-2.882658 0,-0.554069 -2.48076,-1.918167 -3.48773,-1.918167 -1.93314,0 -2.04691,-2.001338 -0.27965,-4.920712 2.79124,-4.612901 7.50392,-6.171419 12.06136,-3.98863 m 16.387,6.209212 c 0.27433,1.366264 0.74539,3.06734 1.04737,3.780177 0.30199,0.712837 0.86449,2.559725 1.24942,4.104198 0.386,1.544473 1.04207,4.168996 1.45996,5.832276 0.41682,1.66328 0.98358,3.44861 1.26004,3.96811 1.57905,2.9723 -0.0862,3.7575 -7.13389,3.36112 -7.78996,-0.43742 -7.93244,-0.74416 -4.6542,-10.04556 0.44235,-1.256101 0.80494,-2.746571 0.80494,-3.312519 0,-0.56486 0.35941,-1.879286 0.79857,-2.920451 0.43916,-1.041178 0.93785,-2.730374 1.10905,-3.754264 0.68479,-4.117155 3.3059,-4.77167 4.05874,-1.013087 m 9.38176,27.655791 c 1.72685,1.9657 1.64817,3.53609 -0.2637,5.24149 l -1.50354,1.34035 h -9.36371 c -11.37551,0 -12.72381,-0.44606 -12.72381,-4.21113 0,-3.4108 2.30211,-3.90978 17.58112,-3.81365 l 5.0338,0.0324 1.23984,1.41054 m 43.51472,40.57646 c -1.22923,0.24517 -1.90124,1.69783 -2.02141,4.36773 -0.1212,2.65908 -0.64118,3.40432 -1.90016,2.71956 -1.73217,-0.9418 -2.83591,-0.57782 -3.85989,1.27339 -0.68161,1.23125 -1.17393,1.67839 -1.6737,1.51962 -0.38918,-0.12528 -1.70344,-0.0659 -2.92203,0.13069 -2.5084,0.40502 -3.10173,0.0756 -3.10173,-1.71836 0,-3.71322 -3.69401,-4.96284 -5.23904,-1.77237 -0.45404,0.93749 -0.55825,5.49963 -0.5189,22.56012 l 0.0489,21.38502 1.04633,1.51422 c 0.57632,0.83381 2.18088,3.06951 3.56534,4.96825 19.9155,27.9117 36.63965,52.67717 57.18701,78.65257 0.20098,0.25273 0.61355,0.93317 0.91766,1.51208 0.30518,0.5789 1.71834,2.54568 3.14108,4.36988 1.4238,1.82313 3.12726,4.10744 3.78546,5.07624 1.55885,2.29079 2.21173,2.22599 5.54102,-0.54542 7.87609,-6.55699 11.05971,-16.22669 8.60874,-26.14589 -0.3307,-1.34142 -0.72201,-3.70241 -0.86769,-5.24689 -0.14673,-1.54447 -0.62204,-4.84943 -1.05588,-7.34435 -1.08567,-6.23082 -1.72686,-10.62446 -1.72686,-11.82115 0,-1.08222 -1.20262,-2.43769 -2.30849,-2.60293 -0.3743,-0.0551 -1.39615,-0.7798 -2.27022,-1.60928 -0.87405,-0.83056 -2.737,-2.46684 -4.1406,-3.63653 -13.69296,-11.83029 -27.47455,-21.45368 -40.24283,-32.58083 -0.37854,-0.36938 -1.7545,-1.44403 -3.05921,-2.38799 -3.80035,-2.75089 -3.97261,-5.38189 -0.35409,-5.42509 2.74872,-0.0335 6.88827,-4.18737 7.88673,-7.91247 1.80234,-6.72979 0.66564,-24.84226 -1.58755,-25.26888 -3.07515,-0.58322 -3.2655,-0.006 -3.50899,10.65147 -0.24138,10.60394 -0.54018,11.60732 -3.36864,11.32434 -2.11284,-0.21062 -2.11178,-0.20521 -2.33933,-17.9969 l -0.21266,-16.65655 -1.00379,-0.82516 c -0.55293,-0.45362 -1.12714,-0.79816 -1.276,-0.76684 -0.14993,0.0324 -0.67521,0.14042 -1.16859,0.2387 m -20.01621,490.04404 c -8.227,0.11989 -15.04614,0.31538 -15.15248,0.43419 -1.25578,1.39218 -0.78579,2.23462 4.05449,7.2655 6.52034,6.77624 7.36037,7.73209 8.8852,10.12332 1.85232,2.90426 2.58601,2.70985 5.67393,-1.50451 2.17451,-2.96798 10.03252,-11.31138 12.32613,-13.08915 l 1.44507,-1.11892 1.62796,1.06277 c 1.49717,0.97852 4.8371,4.21004 10.08144,9.7561 2.82102,2.9831 2.81676,2.98958 2.81676,-3.8007 0,-3.29632 0.11804,-6.59264 0.26158,-7.32383 0.39344,-1.99593 -3.56853,-2.21843 -32.02008,-1.80477 m -86.56155,0.49898 c -0.5423,0.15445 -0.75922,0.30026 -0.48274,0.32402 0.27646,0.0238 0.62524,0.43418 0.7741,0.91157 12.42731,16.4208 15.0263,18.47012 27.21702,5.6141 5.86959,-6.18545 7.12432,-7.05057 7.93777,-5.4737 0.26583,0.51411 2.10433,2.5878 4.08426,4.60751 1.98098,2.01969 3.88859,4.10959 4.24056,4.64421 0.35196,0.53462 0.95168,0.97205 1.33448,0.97097 0.74008,-10e-4 1.02293,-10.82643 0.30198,-11.55871 -0.38705,-0.39422 -44.03254,-0.43203 -45.40743,-0.04" style="stroke-width:1.07166;fill:#6b778d"/><path id="path4" fill="#50403c" fill-rule="evenodd" stroke="none" d="m 194.5569,24.255562 c -4.92322,1.127578 -11.87634,6.890729 -13.27994,11.007884 -0.28497,0.838119 -0.81451,1.981896 -1.17498,2.541361 -0.53699,0.832724 -0.99316,4.262966 -1.05907,7.979425 -0.006,0.309965 -1.49399,2.066133 -3.30697,3.902218 -7.97605,8.074464 -10.73964,15.371296 -10.73964,28.35135 0,6.373388 0.74433,7.642448 1.96078,3.347084 2.97201,-10.495939 14.58996,-20.21208 26.69812,-22.328986 8.79694,-1.536912 20.23519,0.262457 25.72623,4.04803 0.61673,0.425544 1.93527,1.31659 2.93161,1.981896 4.32669,2.888054 9.96341,9.762584 11.69451,14.263159 2.98372,7.759093 4.21079,7.950259 3.37182,0.522748 -0.24775,-2.188184 -0.4668,-5.109724 -0.487,-6.491109 -0.0415,-2.743331 -0.90489,-7.415631 -1.85977,-10.063922 -0.33282,-0.924521 -0.85279,-2.360987 -1.15477,-3.192634 -1.0527,-2.899934 -7.54221,-11.442066 -9.24354,-12.16786 -1.00165,-0.42662 -2.20003,-3.454002 -2.45842,-6.209212 -0.15525,-1.658952 -0.64225,-3.64841 -1.08461,-4.436845 -0.44127,-0.785205 -0.80174,-1.62872 -0.80174,-1.872813 0,-1.945169 -5.87703,-7.874649 -9.35732,-9.440728 -0.58483,-0.263533 -1.56841,-0.761433 -2.1862,-1.105972 -1.36426,-0.760356 -11.63178,-1.220463 -14.1891,-0.635074 m -14.62187,59.198696 c -3.21445,0.77116 -7.58367,6.313977 -6.44804,8.180306 0.34558,0.568114 16.50397,0.840285 17.37484,0.292701 0.70498,-0.441743 0.62949,-2.471159 -0.14887,-4.057756 -1.85019,-3.765055 -6.14712,-5.525542 -10.77793,-4.415251 m 36.4308,0.306734 c -2.40738,0.372617 -6.98822,6.302097 -5.8983,7.63704 0.45404,0.556234 16.13286,0.624271 17.01011,0.07455 0.55718,-0.349934 0.34132,-2.043449 -0.37855,-2.979862 -3.55684,-4.625858 -5.59419,-5.524453 -10.73326,-4.731699 m -16.49228,5.740467 c -0.46786,0.475229 -0.85172,1.398673 -0.85278,2.052099 -0.001,0.653438 -0.47531,2.548923 -1.05376,4.212206 -0.57952,1.663283 -1.05696,3.409724 -1.06227,3.879546 -0.005,0.470901 -0.3711,1.831771 -0.81451,3.024141 -2.66577,7.17154 -2.41696,7.56901 4.74352,7.56901 5.60269,0 6.91059,-0.37911 6.43102,-1.86201 -0.49658,-1.53476 -1.81403,-6.31507 -2.71787,-9.856554 -0.46255,-1.811249 -1.12713,-3.852545 -1.47803,-4.536215 -0.35089,-0.682593 -0.63906,-1.666525 -0.64119,-2.186031 -0.007,-2.718482 -1.13776,-3.734811 -2.55413,-2.296192 m -9.64653,27.815652 c -2.29467,1.96138 -2.01501,4.63882 0.61141,5.85388 2.42546,1.12217 18.939,0.14148 20.4787,-1.21614 1.03249,-0.91157 1.23453,-1.36518 1.03568,-2.3275 -0.51359,-2.48845 -1.57373,-2.77142 -11.64985,-3.11704 l -9.16591,-0.31321 -1.31003,1.12001 M 77.023718,651.73407 c -2.00225,1.67948 -13.122571,13.29434 -13.999818,14.62281 -1.454638,2.20115 -3.362253,2.29079 -4.567008,0.21601 -1.683253,-2.89778 -13.949843,-15.01487 -15.20032,-15.01379 -8.859425,4.66793 -28.444741,27.98595 -17.433314,36.77143 111.134982,19.11227 224.691562,20.24688 337.590642,3.39027 1.63753,-0.24193 3.93432,-0.72579 5.10399,-1.07465 1.16967,-0.34885 2.94223,-0.83703 3.93964,-1.08544 6.00463,-1.49372 8.79693,-13.32784 4.12466,-17.47956 -0.26689,-0.2376 -0.98677,-1.32738 -1.59924,-2.42255 -2.63281,-4.70687 -14.99297,-18.09843 -16.70494,-18.09843 -0.97508,0 -11.80404,10.47218 -13.17893,12.74462 -2.86887,4.74142 -4.91578,5.80742 -6.42784,3.34816 -2.91884,-4.74791 -13.66062,-16.01069 -15.10036,-15.83356 -0.19247,0.0238 -0.66352,0.0724 -1.04525,0.10803 -0.81877,0.0767 -13.00986,12.60419 -14.7516,15.15744 -1.76832,2.59428 -2.24788,2.37287 -6.88401,-3.16996 -1.16967,-1.39866 -2.55731,-2.97445 -3.08366,-3.50259 -0.52634,-0.52707 -0.96869,-1.13082 -0.98251,-1.34143 -0.0148,-0.21061 -0.86449,-1.06277 -1.88848,-1.89441 -1.02399,-0.83165 -1.87359,-1.75509 -1.88848,-2.0521 -0.0139,-0.29702 -0.16907,-0.54002 -0.34452,-0.54002 -0.17545,0 -1.07183,-0.68044 -1.99161,-1.51208 -2.01608,-1.82312 -2.61155,-1.86632 -4.45749,-0.32402 -3.29952,2.75521 -10.23882,10.2767 -12.8142,13.88839 -2.06181,2.89022 -2.72426,3.00794 -4.68504,0.82839 -0.92297,-1.02496 -1.67794,-2.09745 -1.67794,-2.38259 0,-0.28513 -0.2435,-0.67395 -0.5423,-0.86404 -0.29773,-0.19009 -0.90277,-0.92884 -1.34512,-1.64168 -1.15371,-1.86092 -9.17016,-10.1082 -10.53229,-10.83507 -1.67687,-0.89537 -2.11496,-0.78519 -4.00131,1.0066 -0.93786,0.89105 -2.36379,2.21195 -3.16873,2.93451 -1.57373,1.41271 -5.32728,5.68322 -7.76657,8.83805 -3.53026,4.56431 -4.24056,4.82784 -6.10671,2.26811 -2.9869,-4.09556 -11.74662,-13.51792 -13.78927,-14.83126 -1.54503,-0.99364 -2.53606,-0.3629 -7.7166,4.91099 -5.36983,5.46507 -6.19391,6.42198 -8.52793,9.90947 -2.12027,3.16671 -4.64888,2.46145 -6.93716,-1.93329 -0.34027,-0.65344 -0.76348,-1.18805 -0.94105,-1.18805 -0.17757,0 -0.68692,-0.63183 -1.13351,-1.40407 -1.595,-2.76385 -10.04955,-11.12453 -11.24473,-11.12129 -1.62052,0.006 -10.95444,9.44181 -15.48742,15.6575 -1.93951,2.66018 -2.32869,2.4798 -6.85849,-3.1829 -1.25791,-1.57364 -2.73489,-3.33413 -3.28143,-3.91411 -0.54656,-0.57891 -1.58224,-1.72268 -2.30212,-2.54029 -1.3047,-1.48183 -4.40219,-4.43469 -5.81217,-5.54281 -1.44187,-1.1319 -7.841,4.36772 -13.93282,11.97236 -0.81877,1.02281 -2.22769,2.71849 -3.13152,3.7683 l -1.64284,1.90954 -1.12181,-0.8889 c -0.61674,-0.48926 -1.93846,-1.99268 -2.93586,-3.34167 -2.74447,-3.70998 -8.65977,-10.04771 -11.33193,-12.14194 -6.77302,-4.33845 -13.37248,11.32359 -18.901773,15.64347 l -1.301515,0.76792 -1.763001,-2.27999 c -7.331666,-9.48288 -14.9717,-16.56153 -16.494393,-15.28383" style="stroke-width:1.07166;fill:#17223b;fill-opacity:1"/></g></svg>