<?xml version="1.0" encoding="UTF-8"?>
<svg xmlns="http://www.w3.org/2000/svg" xmlns:xlink="http://www.w3.org/1999/xlink" version="1.1" id="Layer_1" x="0px" y="0px" viewBox="0 0 128 128" style="enable-background:new 0 0 128 128;" xml:space="preserve">
<style type="text/css">
	.st0{opacity:0.9;}
	.st1{fill:none;stroke:#FFFFFF;stroke-width:2;stroke-miterlimit:10;}
	.st2{fill:none;}
	.st3{display:none;fill:none;}
	.st4{fill:none;stroke:#FFFFFF;stroke-width:1.8033;stroke-miterlimit:10;}
	.st5{fill:#010101;fill-opacity:0;}
	.st6{opacity:0.9;fill:#FFFFFF;}
	.st7{fill:#FFFFFF;}
	.st8{fill:#E0F3FB;}
	.st9{fill:#C2E8F7;}
	.st10{fill:#FFEDCE;}
	.st11{fill:#8E7F8B;}
	.st12{fill:#FFE9CF;}
	.st13{fill:#726571;}
	.st14{fill:#A8DEF0;}
	.st15{fill:#FDD2AF;}
	.st16{fill:#FFD79E;}
	.st17{fill:#E3F4FD;}
	.st18{fill:#594454;}
	.st19{fill:none;stroke:#000000;stroke-linecap:round;stroke-linejoin:round;stroke-miterlimit:10;}
	.st20{fill:none;stroke:#000000;stroke-miterlimit:10;}
	.st21{fill:none;stroke:#594454;stroke-width:2;stroke-linecap:round;stroke-linejoin:round;stroke-miterlimit:10;}
	.st22{opacity:0.54;}
	.st23{fill:#FFE9CF;stroke:#594454;stroke-miterlimit:10;}
	.st24{opacity:0.5;fill:#FFFFFF;}
	.st25{fill:#CAB5A8;}
	.st26{fill:#7A6A77;}
	.st27{fill:none;stroke:#594454;stroke-width:2;stroke-miterlimit:10;}
	.st28{fill:url(#SVGID_1_);stroke:#594454;stroke-width:2;stroke-linecap:round;stroke-linejoin:round;stroke-miterlimit:10;}
	.st29{fill:url(#SVGID_2_);stroke:#594454;stroke-width:2;stroke-linecap:round;stroke-linejoin:round;stroke-miterlimit:10;}
	.st30{fill:#FFE9CF;stroke:#594454;stroke-width:2;stroke-miterlimit:10;}
	.st31{fill:url(#SVGID_3_);stroke:#594454;stroke-width:2;stroke-linecap:round;stroke-linejoin:round;stroke-miterlimit:10;}
	.st32{fill:url(#SVGID_4_);stroke:#594454;stroke-width:2;stroke-linecap:round;stroke-linejoin:round;stroke-miterlimit:10;}
	.st33{fill:url(#SVGID_5_);stroke:#594454;stroke-width:2;stroke-linecap:round;stroke-linejoin:round;stroke-miterlimit:10;}
	.st34{fill:url(#SVGID_6_);stroke:#594454;stroke-width:2;stroke-linecap:round;stroke-linejoin:round;stroke-miterlimit:10;}
	.st35{fill:#FCCAAC;}
	.st36{fill:#F9AB8D;}
	.st37{fill:#F6957B;}
	.st38{fill:#FEDAB3;}
	.st39{fill:#EEB694;}
	.st40{opacity:0.7;fill:#FFFFFF;}
	.st41{fill:#E8B795;}
	.st42{fill:#C59878;}
	.st43{fill:#DDA581;}
	.st44{fill:#B7856C;}
	.st45{fill:#FCC49D;}
	.st46{fill:#F1F1F2;}
	.st47{fill:#D9D4D8;}
	.st48{fill:none;stroke:#333333;stroke-linecap:round;stroke-linejoin:round;stroke-miterlimit:10;}
	.st49{fill:none;stroke:#333333;}
	.st50{fill:none;stroke:#333333;stroke-linecap:round;stroke-linejoin:round;}
</style>
<symbol id="navbar_x5F_icon_x5F_back_1_" viewBox="-1 -24 25 24">
	<g class="st0" style="opacity: 0.9;">
		
			
		<g>
			<g>
				<path class="st1" d="M18-19c0-0.4,0-0.5-0.3-0.3l-12,7c-0.3,0.2-0.2,0.5,0.1,0.6l11.9,7C18-4.5,18-4.7,18-5V-19z" style="fill: none; stroke: #FFFFFF; stroke-miterlimit: 10; stroke-width: 2;"/>
			</g>
		</g>
	</g>
	<rect x="0" y="-24" class="st2" width="24" height="24" style="fill: none;"/>
	<rect x="-1" y="-24" class="st3" width="25" height="24" style="display: none; fill: none;"/>
</symbol>
<symbol id="navbar_x5F_icon_x5F_home_1_" viewBox="0 -24 24 24">
	<g class="st0" style="opacity: 0.9;">
		
			
		<g id="XMLID_809_">
			<circle id="XMLID_814_" class="st4" cx="12" cy="-12" r="6.9" style="fill: none; stroke: #FFFFFF; stroke-miterlimit: 10; stroke-width: 1.8033;"/>
		</g>
	</g>
	<rect y="-24" class="st2" width="24" height="24" style="fill: none;"/>
	<rect y="-24" class="st3" width="24" height="23" style="display: none; fill: none;"/>
</symbol>
<symbol id="navbar_x5F_icon_x5F_recents_1_" viewBox="0 -24 24 24">
	<g class="st0" style="opacity: 0.9;">
		
			
		<g>
			<g>
				<path class="st1" d="M19-5.7C19-5.4,18.6-5,18.2-5H5.8C5.4-5,5-5.4,5-5.7v-12.6C5-18.6,5.4-19,5.8-19h12.4      c0.4,0,0.8,0.4,0.8,0.7V-5.7z" style="fill: none; stroke: #FFFFFF; stroke-miterlimit: 10; stroke-width: 2;"/>
			</g>
		</g>
	</g>
	<rect y="-24" class="st2" width="24" height="24" style="fill: none;"/>
	<rect y="-24" class="st3" width="24" height="23" style="display: none; fill: none;"/>
</symbol>
<symbol id="sysbar_x5F_status_2" viewBox="0 -24 360 24">
	
		<use xlink:href="#sysbar_x5F_status_x5F_used_x5F_light" width="360" height="24" id="XMLID_495_" x="0" y="-24" transform="matrix(1 0 0 1 -4.083897e-005 0)" style="overflow:visible;"/>
</symbol>
<symbol id="sysbar_x5F_status_x5F_used_x5F_light" viewBox="0 -24 360 24">
	<rect x="0" y="-24" class="st5" width="360" height="24" style="fill: #010101; fill-opacity: 0;"/>
	<g>
		<g class="st0" style="opacity: 0.9;">
			<rect x="312" y="-21" class="st2" width="40" height="16" style="fill: none;"/>
			
		</g>
		<g>
			<g class="st0" style="opacity: 0.9;">
				<path class="st6" d="M266-19l8.8,10.9C274.5-7.8,271.1-5,266-5s-8.5-2.8-8.8-3.1L266-19L266-19L266-19L266-19L266-19z" style="fill: #FFFFFF; opacity: 0.9;"/>
			</g>
			<rect x="258" y="-20" class="st2" width="16" height="16" style="fill: none;"/>
		</g>
		<g>
			<polygon class="st6" points="277,-19 291,-19 291,-5    " style="fill: #FFFFFF; opacity: 0.9;"/>
			<rect x="276" y="-20" class="st2" width="16" height="16" style="fill: none;"/>
		</g>
		<g>
			<rect x="296" y="-20" class="st2" width="16" height="16" style="fill: none;"/>
			<path class="st6" d="M306-6v1h-3v-1h-3v-13h9v13H306z" style="fill: #FFFFFF; opacity: 0.9;"/>
		</g>
	</g>
</symbol>
<g id="ic_x5F_favorite_x0D_" class="st22" style="opacity: 0.54;">
</g>
<g id="ic_x5F_search_x0D_" class="st22" style="opacity: 0.54;">
</g>
<g id="ic_x5F_more_x5F_vert" class="st22" style="opacity: 0.54;">
</g>
<g id="ic_x5F_menu">
</g>
<g id="ic_x5F_cancel_x5F_white">
</g>
<g id="ic_x5F_cancel_x5F_white_1_">
</g>
<g id="ic_x5F_cancel_x5F_white_6_">
</g>
<g id="ic_x5F_cancel_x5F_white_5_">
</g>
<g id="ic_x5F_cancel_x5F_white_7_">
</g>
<g id="ic_x5F_cancel_x5F_white_4_">
</g>
<g id="ic_x5F_cancel_x5F_white_8_">
</g>
<g id="ic_x5F_cancel_x5F_white_3_">
</g>
<g id="ic_x5F_cancel_x5F_white_9_">
</g>
<g id="ic_x5F_cancel_x5F_white_2_">
</g>
<g id="navbar_x5F_mobile">
	<g id="navbar_x5F_icon_x5F_back">
	</g>
	<g id="navbar_x5F_icon_x5F_home">
	</g>
	<g id="navbar_x5F_icon_x5F_recents">
	</g>
</g>
<g>
	<defs>
		<rect id="SVGID_9_" x="-78.6" y="-343.4" width="140" height="158.3"/>
	</defs>
	<clipPath id="SVGID_1_">
		<use xlink:href="#SVGID_9_" style="overflow:visible;"/>
	</clipPath>
	<g style="clip-path:url(#SVGID_1_);">
		
			
	</g>
</g>
<g>
	<g id="XMLID_1689_">
		<rect x="86" y="81" class="st10" width="12" height="46" style="fill: #FFEDCE;"/>
	</g>
	<g id="XMLID_1688_">
		<path class="st11" d="M94,113h-4v-4c0-1.1,0.9-2,2-2l0,0c1.1,0,2,0.9,2,2V113z" style="fill: #8E7F8B;"/>
	</g>
	<g id="XMLID_1687_">
		<rect x="34" y="57" class="st12" width="60" height="24" style="fill: #FFE9CF;"/>
	</g>
	<g id="XMLID_1686_">
		<path class="st11" d="M50,82c0,0,0-7.6,0-11c0-4.5,4.1-6,4.1-6s3.9,1.5,3.9,6c0,3.4,0,11,0,11" style="fill: #8E7F8B;"/>
	</g>
	<g id="XMLID_1685_">
		<path class="st11" d="M38,82c0,0,0-7.6,0-11c0-4.5,4.1-6,4.1-6s3.9,1.5,3.9,6c0,3.4,0,11,0,11" style="fill: #8E7F8B;"/>
	</g>
	<g>
		<path class="st13" d="M42.1,65c0,0-4.1,1.5-4.1,6c0,1.1,0,2.5,0,4c0-4.5,4.1-6,4.1-6s3.9,1.5,3.9,6c0-1.5,0-2.9,0-4    C46,66.5,42.1,65,42.1,65z" style="fill: #726571;"/>
	</g>
	<g>
		<path class="st13" d="M54.1,65c0,0-4.1,1.5-4.1,6c0,1.1,0,2.5,0,4c0-4.5,4.1-6,4.1-6s3.9,1.5,3.9,6c0-1.5,0-2.9,0-4    C58,66.5,54.1,65,54.1,65z" style="fill: #726571;"/>
	</g>
	<g id="XMLID_1683_">
		<rect x="98" y="81" class="st12" width="12" height="46" style="fill: #FFE9CF;"/>
	</g>
	<g id="XMLID_1682_">
		<rect x="18" y="81" class="st12" width="12" height="46" style="fill: #FFE9CF;"/>
	</g>
	<g>
		<rect x="106" y="81" class="st7" width="4" height="46" style="fill: #FFFFFF;"/>
	</g>
	<g>
		<rect x="26" y="81" class="st7" width="4" height="46" style="fill: #FFFFFF;"/>
	</g>
	<g>
		<path class="st12" d="M42,81v46h38l-32-0.1v-20.7c0-6.4,3.7-12.3,9.8-15.7L64,87l6.1,3.4c6.1,3.4,9.9,9.4,9.9,15.7V127h6V81H42z" style="fill: #FFE9CF;"/>
	</g>
	<g id="XMLID_1680_">
		<rect x="100" y="24" class="st12" width="8" height="9" style="fill: #FFE9CF;"/>
	</g>
	<g id="XMLID_1679_">
		<rect x="20" y="24" class="st12" width="8" height="9" style="fill: #FFE9CF;"/>
	</g>
	<g id="XMLID_1675_">
		
			<rect x="98" y="18" transform="matrix(-1 -1.224647e-016 1.224647e-016 -1 207.9617 42.0313)" class="st12" width="12" height="6" style="fill: #FFE9CF;"/>
	</g>
	<g id="XMLID_1674_">
		
			<rect x="18" y="18" transform="matrix(-1 -1.224647e-016 1.224647e-016 -1 47.9617 42.0313)" class="st10" width="12" height="6" style="fill: #FFEDCE;"/>
	</g>
	<g id="XMLID_1641_">
		<path class="st12" d="M20,17.6v-7.3c0-1.8,0.9-3.5,2.4-4.5l1.6-1l1.5,1c1.5,1,2.5,2.7,2.5,4.5v7.3" style="fill: #FFE9CF;"/>
	</g>
	<g id="XMLID_1640_">
		<path class="st12" d="M100,17.6v-7.3c0-1.8,0.9-3.5,2.4-4.5l1.6-1l1.5,1c1.5,1,2.5,2.7,2.5,4.5v7.3" style="fill: #FFE9CF;"/>
	</g>
	<g>
		<rect x="20" y="24" class="st15" width="8" height="4" style="fill: #FDD2AF;"/>
	</g>
	<g>
		<rect x="100" y="24" class="st15" width="8" height="4" style="fill: #FDD2AF;"/>
	</g>
	<g id="XMLID_1635_">
		<rect x="100" y="41" class="st12" width="8" height="16" style="fill: #FFE9CF;"/>
	</g>
	<g id="XMLID_1632_">
		<rect x="94" y="57" class="st10" width="20" height="24" style="fill: #FFEDCE;"/>
	</g>
	<g>
		<rect x="94" y="57" class="st15" width="4" height="24" style="fill: #FDD2AF;"/>
	</g>
	<g id="XMLID_1627_">
		<rect x="30" y="81" class="st12" width="12" height="46" style="fill: #FFE9CF;"/>
	</g>
	<g id="XMLID_1619_">
		<circle class="st16" cx="64" cy="69" r="2" style="fill: #FFD79E;"/>
	</g>
	<g>
		<rect x="30" y="81" class="st15" width="68" height="4" style="fill: #FDD2AF;"/>
	</g>
	<g>
		<rect x="18" y="81" class="st15" width="12" height="4" style="fill: #FDD2AF;"/>
	</g>
	<g>
		<rect x="94" y="81" class="st15" width="4" height="46" style="fill: #FDD2AF;"/>
	</g>
	<g>
		<rect x="98" y="81" class="st15" width="4" height="46" style="fill: #FDD2AF;"/>
	</g>
	<g>
		<rect x="30" y="81" class="st15" width="4" height="46" style="fill: #FDD2AF;"/>
	</g>
	<g>
		<rect x="18" y="81" class="st15" width="4" height="46" style="fill: #FDD2AF;"/>
	</g>
	<g id="XMLID_1618_">
		<circle class="st16" cx="48" cy="89" r="2" style="fill: #FFD79E;"/>
	</g>
	<g id="XMLID_1617_">
		<circle class="st16" cx="80" cy="89" r="2" style="fill: #FFD79E;"/>
	</g>
	<g id="XMLID_1616_">
		<rect x="14" y="57" class="st12" width="20" height="24" style="fill: #FFE9CF;"/>
	</g>
	<g>
		<rect x="98" y="81" class="st15" width="12" height="4" style="fill: #FDD2AF;"/>
	</g>
	<g id="XMLID_1615_">
		<rect x="28" y="48.9" class="st12" width="72" height="8.1" style="fill: #FFE9CF;"/>
	</g>
	<g>
		<rect x="28" y="48.9" class="st15" width="4" height="8.1" style="fill: #FDD2AF;"/>
	</g>
	<g>
		<rect x="96" y="48.9" class="st15" width="4" height="8.1" style="fill: #FDD2AF;"/>
	</g>
	<g>
		<rect x="34" y="57" class="st15" width="4" height="24" style="fill: #FDD2AF;"/>
	</g>
	<g>
		<rect x="14" y="57" class="st15" width="4" height="24" style="fill: #FDD2AF;"/>
	</g>
	<g id="XMLID_1606_">
		<path class="st11" d="M70,82c0,0,0-7.6,0-11c0-4.5,4.1-6,4.1-6s3.9,1.5,3.9,6c0,3.4,0,11,0,11" style="fill: #8E7F8B;"/>
	</g>
	<g id="XMLID_1605_">
		<path class="st11" d="M82,82c0,0,0-7.6,0-11c0-4.5,4.1-6,4.1-6s3.9,1.5,3.9,6c0,3.4,0,11,0,11" style="fill: #8E7F8B;"/>
	</g>
	<g id="XMLID_1604_">
		<path class="st11" d="M38,93h-4v-4c0-1.1,0.9-2,2-2h0c1.1,0,2,0.9,2,2V93z" style="fill: #8E7F8B;"/>
	</g>
	<g>
		<path class="st13" d="M36,87c-1.1,0-2,0.9-2,2v3c0-1.1,0.9-2,2-2s2,0.9,2,2v-3C38,87.9,37.1,87,36,87z" style="fill: #726571;"/>
	</g>
	<g id="XMLID_1601_">
		<path class="st11" d="M38,103h-4v-4c0-1.1,0.9-2,2-2h0c1.1,0,2,0.9,2,2V103z" style="fill: #8E7F8B;"/>
	</g>
	<g>
		<path class="st13" d="M36,97c-1.1,0-2,0.9-2,2v3c0-1.1,0.9-2,2-2s2,0.9,2,2v-3C38,97.9,37.1,97,36,97z" style="fill: #726571;"/>
	</g>
	<g id="XMLID_1600_">
		<path class="st11" d="M38,113h-4v-4c0-1.1,0.9-2,2-2h0c1.1,0,2,0.9,2,2V113z" style="fill: #8E7F8B;"/>
	</g>
	<g id="XMLID_1599_">
		<path class="st11" d="M38,123h-4v-4c0-1.1,0.9-2,2-2h0c1.1,0,2,0.9,2,2V123z" style="fill: #8E7F8B;"/>
	</g>
	<g id="XMLID_1591_">
		<path class="st11" d="M94,93h-4v-4c0-1.1,0.9-2,2-2l0,0c1.1,0,2,0.9,2,2V93z" style="fill: #8E7F8B;"/>
	</g>
	<g id="XMLID_1590_">
		<path class="st11" d="M94,103h-4v-4c0-1.1,0.9-2,2-2l0,0c1.1,0,2,0.9,2,2V103z" style="fill: #8E7F8B;"/>
	</g>
	<g id="XMLID_1589_">
		<path class="st11" d="M94,123h-4v-4c0-1.1,0.9-2,2-2l0,0c1.1,0,2,0.9,2,2V123z" style="fill: #8E7F8B;"/>
	</g>
	<g id="XMLID_1588_">
		<path class="st11" d="M30,77h-4v-4c0-1.1,0.9-2,2-2h0c1.1,0,2,0.9,2,2V77z" style="fill: #8E7F8B;"/>
	</g>
	<g id="XMLID_1587_">
		<path class="st11" d="M30,67h-4v-4c0-1.1,0.9-2,2-2h0c1.1,0,2,0.9,2,2V67z" style="fill: #8E7F8B;"/>
	</g>
	<g id="XMLID_1586_">
		<path class="st11" d="M102,77h-4v-4c0-1.1,0.9-2,2-2l0,0c1.1,0,2,0.9,2,2V77z" style="fill: #8E7F8B;"/>
	</g>
	<g id="XMLID_1583_">
		<path class="st11" d="M102,67h-4v-4c0-1.1,0.9-2,2-2l0,0c1.1,0,2,0.9,2,2V67z" style="fill: #8E7F8B;"/>
	</g>
	<g id="XMLID_1582_">
		<path class="st11" d="M110,77h-4v-4c0-1.1,0.9-2,2-2l0,0c1.1,0,2,0.9,2,2V77z" style="fill: #8E7F8B;"/>
	</g>
	<g id="XMLID_1581_">
		<path class="st11" d="M110,67h-4v-4c0-1.1,0.9-2,2-2l0,0c1.1,0,2,0.9,2,2V67z" style="fill: #8E7F8B;"/>
	</g>
	<g id="XMLID_1579_">
		<path class="st17" d="M38,57h-4v-2c0-1.1,0.9-2,2-2h0c1.1,0,2,0.9,2,2V57z" style="fill: #E3F4FD;"/>
	</g>
	<g id="XMLID_1578_">
		<path class="st17" d="M46,57h-4v-2c0-1.1,0.9-2,2-2h0c1.1,0,2,0.9,2,2V57z" style="fill: #E3F4FD;"/>
	</g>
	<g id="XMLID_1577_">
		<path class="st17" d="M54,57h-4v-2c0-1.1,0.9-2,2-2h0c1.1,0,2,0.9,2,2V57z" style="fill: #E3F4FD;"/>
	</g>
	<g id="XMLID_1576_">
		<path class="st17" d="M62,57h-4v-2c0-1.1,0.9-2,2-2h0c1.1,0,2,0.9,2,2V57z" style="fill: #E3F4FD;"/>
	</g>
	<g id="XMLID_1568_">
		<path class="st17" d="M70,57h-4v-2c0-1.1,0.9-2,2-2l0,0c1.1,0,2,0.9,2,2V57z" style="fill: #E3F4FD;"/>
	</g>
	<g id="XMLID_1566_">
		<path class="st17" d="M78,57h-4v-2c0-1.1,0.9-2,2-2l0,0c1.1,0,2,0.9,2,2V57z" style="fill: #E3F4FD;"/>
	</g>
	<g id="XMLID_1564_">
		<path class="st17" d="M86,57h-4v-2c0-1.1,0.9-2,2-2l0,0c1.1,0,2,0.9,2,2V57z" style="fill: #E3F4FD;"/>
	</g>
	<g id="XMLID_1558_">
		<path class="st17" d="M94,57h-4v-2c0-1.1,0.9-2,2-2l0,0c1.1,0,2,0.9,2,2V57z" style="fill: #E3F4FD;"/>
	</g>
	<g id="XMLID_1530_">
		<path class="st11" d="M22,77h-4v-4c0-1.1,0.9-2,2-2h0c1.1,0,2,0.9,2,2V77z" style="fill: #8E7F8B;"/>
	</g>
	<g id="XMLID_1529_">
		<path class="st11" d="M22,67h-4v-4c0-1.1,0.9-2,2-2h0c1.1,0,2,0.9,2,2V67z" style="fill: #8E7F8B;"/>
	</g>
	<g id="XMLID_1513_">
		<rect x="28" y="44.9" class="st12" width="72" height="4" style="fill: #FFE9CF;"/>
	</g>
	<g id="XMLID_1508_">
		<rect x="20" y="41" class="st12" width="8" height="16" style="fill: #FFE9CF;"/>
	</g>
	<g>
		<rect x="19" y="17.9" class="st15" width="3" height="6.1" style="fill: #FDD2AF;"/>
	</g>
	<g>
		<rect x="99" y="17.9" class="st15" width="3" height="6.1" style="fill: #FDD2AF;"/>
	</g>
	<g id="XMLID_1458_">
		
			<rect x="16" y="33" transform="matrix(-1 -1.224647e-016 1.224647e-016 -1 47.9617 74.0313)" class="st12" width="16" height="8" style="fill: #FFE9CF;"/>
	</g>
	<g>
		<rect x="20" y="41" class="st15" width="8" height="4" style="fill: #FDD2AF;"/>
	</g>
	<g>
		<rect x="100" y="41" class="st15" width="8" height="4" style="fill: #FDD2AF;"/>
	</g>
	<g id="XMLID_1457_">
		
			<rect x="96" y="33" transform="matrix(-1 -1.224647e-016 1.224647e-016 -1 207.9617 74.0313)" class="st12" width="16" height="8" style="fill: #FFE9CF;"/>
	</g>
	<g>
		<rect x="105" y="24" class="st7" width="3" height="9" style="fill: #FFFFFF;"/>
	</g>
	<g>
		<rect x="25" y="24" class="st7" width="3" height="9" style="fill: #FFFFFF;"/>
	</g>
	<g>
		<rect x="105" y="41" class="st7" width="3" height="16" style="fill: #FFFFFF;"/>
	</g>
	<g>
		<rect x="90" y="57" class="st7" width="4" height="24" style="fill: #FFFFFF;"/>
	</g>
	<g>
		<rect x="110" y="57" class="st7" width="4" height="24" style="fill: #FFFFFF;"/>
	</g>
	<g>
		<rect x="34" y="57" class="st7" width="60" height="4" style="fill: #FFFFFF;"/>
	</g>
	<g>
		<rect x="14" y="57" class="st7" width="20" height="4" style="fill: #FFFFFF;"/>
	</g>
	<g>
		<rect x="94" y="57" class="st7" width="20" height="4" style="fill: #FFFFFF;"/>
	</g>
	<g>
		<rect x="30" y="57" class="st7" width="4" height="24" style="fill: #FFFFFF;"/>
	</g>
	<g>
		<rect x="25" y="41" class="st7" width="3" height="16" style="fill: #FFFFFF;"/>
	</g>
	<g>
		<rect x="105" y="11" class="st7" width="3" height="7" style="fill: #FFFFFF;"/>
	</g>
	<g>
		<rect x="25" y="11" class="st7" width="3" height="7" style="fill: #FFFFFF;"/>
	</g>
	<g>
		<rect x="26" y="17.9" class="st7" width="3" height="6.1" style="fill: #FFFFFF;"/>
	</g>
	<g>
		<rect x="106" y="17.9" class="st7" width="3" height="6.1" style="fill: #FFFFFF;"/>
	</g>
	<g>
		<rect x="28" y="47.9" class="st7" width="72" height="4" style="fill: #FFFFFF;"/>
	</g>
	<g>
		<rect x="28" y="33" class="st7" width="4" height="8" style="fill: #FFFFFF;"/>
	</g>
	<g>
		<rect x="108" y="33" class="st7" width="4" height="8" style="fill: #FFFFFF;"/>
	</g>
	<g>
		<rect x="16" y="33" class="st15" width="4" height="8" style="fill: #FDD2AF;"/>
	</g>
	<g>
		<rect x="96" y="33" class="st15" width="4" height="8" style="fill: #FDD2AF;"/>
	</g>
	<g id="XMLID_1456_">
		<path class="st18" d="M127,128H1c-0.6,0-1-0.4-1-1s0.4-1,1-1h126c0.6,0,1,0.4,1,1S127.6,128,127,128z" style="fill: #594454;"/>
	</g>
	<g id="XMLID_1455_">
		<path class="st18" d="M80,128c-0.6,0-1-0.4-1-1v-20.9c0-6-3.5-11.6-9.4-14.9L64,88.1l-5.7,3.2c-5.8,3.3-9.3,8.8-9.3,14.8v20.7    c0,0.6-0.4,1-1,1s-1-0.4-1-1v-20.7c0-6.7,3.9-12.9,10.3-16.6l6.2-3.5c0.3-0.2,0.7-0.2,1,0l6.1,3.4c6.5,3.6,10.4,9.8,10.4,16.6V127    C81,127.6,80.5,128,80,128z" style="fill: #594454;"/>
	</g>
	<g id="XMLID_1454_">
		<path class="st18" d="M46,83c-0.6,0-1-0.4-1-1V71c0-3-2.1-4.5-2.9-4.9C41.2,66.6,39,68,39,71v11c0,0.6-0.4,1-1,1s-1-0.4-1-1V71    c0-5.1,4.6-6.9,4.8-6.9c0.2-0.1,0.5-0.1,0.7,0c0.2,0.1,4.5,1.8,4.5,6.9v11C47,82.6,46.5,83,46,83z" style="fill: #594454;"/>
	</g>
	<g id="XMLID_1453_">
		<path class="st18" d="M58,83c-0.6,0-1-0.4-1-1V71c0-3-2.1-4.5-2.9-4.9C53.2,66.6,51,68,51,71v11c0,0.6-0.4,1-1,1s-1-0.4-1-1V71    c0-5.1,4.6-6.9,4.8-6.9c0.2-0.1,0.5-0.1,0.7,0c0.2,0.1,4.5,1.8,4.5,6.9v11C59,82.6,58.5,83,58,83z" style="fill: #594454;"/>
	</g>
	<g id="XMLID_1451_">
		<path class="st18" d="M86,128H42c-0.6,0-1-0.4-1-1V81c0-0.6,0.4-1,1-1h44c0.6,0,1,0.4,1,1v46C87,127.6,86.5,128,86,128z M43,126    h42V82H43V126z" style="fill: #594454;"/>
	</g>
	<g id="XMLID_1450_">
		<path class="st18" d="M42,128H30c-0.6,0-1-0.4-1-1V81c0-0.6,0.4-1,1-1h12c0.6,0,1,0.4,1,1v46C43,127.6,42.5,128,42,128z M31,126    h10V82H31V126z" style="fill: #594454;"/>
	</g>
	<g id="XMLID_1449_">
		<path class="st18" d="M30,128H18c-0.6,0-1-0.4-1-1V81c0-0.6,0.4-1,1-1h12c0.6,0,1,0.4,1,1v46C31,127.6,30.5,128,30,128z M19,126    h10V82H19V126z" style="fill: #594454;"/>
	</g>
	<g id="XMLID_1448_">
		<path class="st18" d="M28,58h-8c-0.6,0-1-0.4-1-1V41c0-0.6,0.4-1,1-1h8c0.6,0,1,0.4,1,1v16C29,57.6,28.5,58,28,58z M21,56h6V42h-6    V56z" style="fill: #594454;"/>
	</g>
	<g id="XMLID_1447_">
		<path class="st18" d="M28,34h-8c-0.6,0-1-0.4-1-1v-9c0-0.6,0.4-1,1-1h8c0.6,0,1,0.4,1,1v9C29,33.6,28.5,34,28,34z M21,32h6v-7h-6    V32z" style="fill: #594454;"/>
	</g>
	<g id="XMLID_1446_">
		<path class="st18" d="M108,58h-8c-0.6,0-1-0.4-1-1V41c0-0.6,0.4-1,1-1h8c0.6,0,1,0.4,1,1v16C109,57.6,108.5,58,108,58z M101,56h6    V42h-6V56z" style="fill: #594454;"/>
	</g>
	<g id="XMLID_1445_">
		<path class="st18" d="M34,82H14c-0.6,0-1-0.4-1-1V57c0-0.6,0.4-1,1-1h20c0.6,0,1,0.4,1,1v24C35,81.6,34.5,82,34,82z M15,80h18V58    H15V80z" style="fill: #594454;"/>
	</g>
	<g id="XMLID_1444_">
		<path class="st18" d="M32,42H16c-0.6,0-1-0.4-1-1v-8c0-0.6,0.4-1,1-1h16c0.6,0,1,0.4,1,1v8C33,41.6,32.5,42,32,42z M17,40h14v-6    H17V40z" style="fill: #594454;"/>
	</g>
	<g id="XMLID_1443_">
		<path class="st18" d="M30,25H18c-0.6,0-1-0.4-1-1v-6c0-0.6,0.4-1,1-1h12c0.6,0,1,0.4,1,1v6C31,24.6,30.5,25,30,25z M19,23h10v-4    H19V23z" style="fill: #594454;"/>
	</g>
	<g id="XMLID_1442_">
		<path class="st18" d="M94,82H34c-0.6,0-1-0.4-1-1V57c0-0.6,0.4-1,1-1h60c0.6,0,1,0.4,1,1v24C95,81.6,94.5,82,94,82z M35,80h58V58    H35V80z" style="fill: #594454;"/>
	</g>
	<g id="XMLID_1441_">
		<path class="st18" d="M100,58H28c-0.6,0-1-0.4-1-1v-8.1c0-0.6,0.4-1,1-1h72c0.6,0,1,0.4,1,1V57C101,57.6,100.5,58,100,58z M29,56    h70v-6.1H29V56z" style="fill: #594454;"/>
	</g>
	<g id="XMLID_1433_">
		<path class="st18" d="M100,49.9H28c-0.6,0-1-0.4-1-1v-4c0-0.6,0.4-1,1-1h72c0.6,0,1,0.4,1,1v4C101,49.5,100.5,49.9,100,49.9z     M29,47.9h70v-2H29V47.9z" style="fill: #594454;"/>
	</g>
	<g id="XMLID_1427_">
		<path class="st18" d="M38,94h-4c-0.6,0-1-0.4-1-1v-4c0-1.7,1.3-3,3-3s3,1.3,3,3v4C39,93.6,38.5,94,38,94z M35,92h2v-3    c0-0.6-0.4-1-1-1s-1,0.4-1,1V92z" style="fill: #594454;"/>
	</g>
	<g id="XMLID_1426_">
		<path class="st18" d="M38,104h-4c-0.6,0-1-0.4-1-1v-4c0-1.7,1.3-3,3-3s3,1.3,3,3v4C39,103.6,38.5,104,38,104z M35,102h2v-3    c0-0.6-0.4-1-1-1s-1,0.4-1,1V102z" style="fill: #594454;"/>
	</g>
	<g id="XMLID_1425_">
		<path class="st18" d="M38,114h-4c-0.6,0-1-0.4-1-1v-4c0-1.7,1.3-3,3-3s3,1.3,3,3v4C39,113.6,38.5,114,38,114z M35,112h2v-3    c0-0.6-0.4-1-1-1s-1,0.4-1,1V112z" style="fill: #594454;"/>
	</g>
	<g id="XMLID_1424_">
		<path class="st18" d="M38,124h-4c-0.6,0-1-0.4-1-1v-4c0-1.7,1.3-3,3-3s3,1.3,3,3v4C39,123.6,38.5,124,38,124z M35,122h2v-3    c0-0.6-0.4-1-1-1s-1,0.4-1,1V122z" style="fill: #594454;"/>
	</g>
	<g id="XMLID_1423_">
		<path class="st18" d="M94,104h-4c-0.6,0-1-0.4-1-1v-4c0-1.7,1.3-3,3-3s3,1.3,3,3v4C95,103.6,94.5,104,94,104z M91,102h2v-3    c0-0.6-0.4-1-1-1s-1,0.4-1,1V102z" style="fill: #594454;"/>
	</g>
	<g id="XMLID_1422_">
		<path class="st18" d="M94,124h-4c-0.6,0-1-0.4-1-1v-4c0-1.7,1.3-3,3-3s3,1.3,3,3v4C95,123.6,94.5,124,94,124z M91,122h2v-3    c0-0.6-0.4-1-1-1s-1,0.4-1,1V122z" style="fill: #594454;"/>
	</g>
	<g id="XMLID_1421_">
		<path class="st18" d="M38,94h-4c-0.6,0-1-0.4-1-1v-4c0-1.7,1.3-3,3-3s3,1.3,3,3v4C39,93.6,38.5,94,38,94z M35,92h2v-3    c0-0.6-0.4-1-1-1s-1,0.4-1,1V92z" style="fill: #594454;"/>
	</g>
	<g id="XMLID_1420_">
		<path class="st18" d="M38,104h-4c-0.6,0-1-0.4-1-1v-4c0-1.7,1.3-3,3-3s3,1.3,3,3v4C39,103.6,38.5,104,38,104z M35,102h2v-3    c0-0.6-0.4-1-1-1s-1,0.4-1,1V102z" style="fill: #594454;"/>
	</g>
	<g id="XMLID_1419_">
		<path class="st18" d="M38,114h-4c-0.6,0-1-0.4-1-1v-4c0-1.7,1.3-3,3-3s3,1.3,3,3v4C39,113.6,38.5,114,38,114z M35,112h2v-3    c0-0.6-0.4-1-1-1s-1,0.4-1,1V112z" style="fill: #594454;"/>
	</g>
	<g id="XMLID_1418_">
		<path class="st18" d="M38,124h-4c-0.6,0-1-0.4-1-1v-4c0-1.7,1.3-3,3-3s3,1.3,3,3v4C39,123.6,38.5,124,38,124z M35,122h2v-3    c0-0.6-0.4-1-1-1s-1,0.4-1,1V122z" style="fill: #594454;"/>
	</g>
	<g id="XMLID_1417_">
		<path class="st18" d="M94,104h-4c-0.6,0-1-0.4-1-1v-4c0-1.7,1.3-3,3-3s3,1.3,3,3v4C95,103.6,94.5,104,94,104z M91,102h2v-3    c0-0.6-0.4-1-1-1s-1,0.4-1,1V102z" style="fill: #594454;"/>
	</g>
	<g id="XMLID_1416_">
		<path class="st18" d="M94,124h-4c-0.6,0-1-0.4-1-1v-4c0-1.7,1.3-3,3-3s3,1.3,3,3v4C95,123.6,94.5,124,94,124z M91,122h2v-3    c0-0.6-0.4-1-1-1s-1,0.4-1,1V122z" style="fill: #594454;"/>
	</g>
	<g>
		<path class="st13" d="M28,71c-1.1,0-2,0.9-2,2v2c0-1.1,0.9-2,2-2s2,0.9,2,2v-2C30,71.9,29.1,71,28,71z" style="fill: #726571;"/>
	</g>
	<g>
		<path class="st13" d="M100,71c-1.1,0-2,0.9-2,2v2c0-1.1,0.9-2,2-2s2,0.9,2,2v-2C102,71.9,101.1,71,100,71z" style="fill: #726571;"/>
	</g>
	<g>
		<path class="st13" d="M100,61c-1.1,0-2,0.9-2,2v2c0-1.1,0.9-2,2-2s2,0.9,2,2v-2C102,61.9,101.1,61,100,61z" style="fill: #726571;"/>
	</g>
	<g>
		<path class="st13" d="M108,71c-1.1,0-2,0.9-2,2v2c0-1.1,0.9-2,2-2s2,0.9,2,2v-2C110,71.9,109.1,71,108,71z" style="fill: #726571;"/>
	</g>
	<g>
		<path class="st13" d="M108,61c-1.1,0-2,0.9-2,2v2c0-1.1,0.9-2,2-2s2,0.9,2,2v-2C110,61.9,109.1,61,108,61z" style="fill: #726571;"/>
	</g>
	<g>
		<path class="st13" d="M20,71c-1.1,0-2,0.9-2,2v2c0-1.1,0.9-2,2-2s2,0.9,2,2v-2C22,71.9,21.1,71,20,71z" style="fill: #726571;"/>
	</g>
	<g>
		<path class="st13" d="M20,61c-1.1,0-2,0.9-2,2v2c0-1.1,0.9-2,2-2s2,0.9,2,2v-2C22,61.9,21.1,61,20,61z" style="fill: #726571;"/>
	</g>
	<g>
		<path class="st13" d="M28,61c-1.1,0-2,0.9-2,2v2c0-1.1,0.9-2,2-2s2,0.9,2,2v-2C30,61.9,29.1,61,28,61z" style="fill: #726571;"/>
	</g>
	<g id="XMLID_1415_">
		<path class="st18" d="M38,94h-4c-0.6,0-1-0.4-1-1v-4c0-1.7,1.3-3,3-3s3,1.3,3,3v4C39,93.6,38.5,94,38,94z M35,92h2v-3    c0-0.6-0.4-1-1-1s-1,0.4-1,1V92z" style="fill: #594454;"/>
	</g>
	<g id="XMLID_1414_">
		<path class="st18" d="M38,104h-4c-0.6,0-1-0.4-1-1v-4c0-1.7,1.3-3,3-3s3,1.3,3,3v4C39,103.6,38.5,104,38,104z M35,102h2v-3    c0-0.6-0.4-1-1-1s-1,0.4-1,1V102z" style="fill: #594454;"/>
	</g>
	<g id="XMLID_1413_">
		<path class="st18" d="M22,78h-4c-0.6,0-1-0.4-1-1v-4c0-1.7,1.3-3,3-3s3,1.3,3,3v4C23,77.6,22.5,78,22,78z M19,76h2v-3    c0-0.6-0.4-1-1-1s-1,0.4-1,1V76z" style="fill: #594454;"/>
	</g>
	<g id="XMLID_1412_">
		<path class="st18" d="M22,68h-4c-0.6,0-1-0.4-1-1v-4c0-1.7,1.3-3,3-3s3,1.3,3,3v4C23,67.6,22.5,68,22,68z M19,66h2v-3    c0-0.6-0.4-1-1-1s-1,0.4-1,1V66z" style="fill: #594454;"/>
	</g>
	<g id="XMLID_1411_">
		<path class="st18" d="M30,78h-4c-0.6,0-1-0.4-1-1v-4c0-1.7,1.3-3,3-3s3,1.3,3,3v4C31,77.6,30.5,78,30,78z M27,76h2v-3    c0-0.6-0.4-1-1-1s-1,0.4-1,1V76z" style="fill: #594454;"/>
	</g>
	<g id="XMLID_1410_">
		<path class="st18" d="M30,68h-4c-0.6,0-1-0.4-1-1v-4c0-1.7,1.3-3,3-3s3,1.3,3,3v4C31,67.6,30.5,68,30,68z M27,66h2v-3    c0-0.6-0.4-1-1-1s-1,0.4-1,1V66z" style="fill: #594454;"/>
	</g>
	<g id="XMLID_1409_">
		<path class="st18" d="M102,78h-4c-0.6,0-1-0.4-1-1v-4c0-1.7,1.3-3,3-3s3,1.3,3,3v4C103,77.6,102.5,78,102,78z M99,76h2v-3    c0-0.6-0.4-1-1-1s-1,0.4-1,1V76z" style="fill: #594454;"/>
	</g>
	<g id="XMLID_1408_">
		<path class="st18" d="M102,68h-4c-0.6,0-1-0.4-1-1v-4c0-1.7,1.3-3,3-3s3,1.3,3,3v4C103,67.6,102.5,68,102,68z M99,66h2v-3    c0-0.6-0.4-1-1-1s-1,0.4-1,1V66z" style="fill: #594454;"/>
	</g>
	<g id="XMLID_1407_">
		<path class="st18" d="M110,78h-4c-0.6,0-1-0.4-1-1v-4c0-1.7,1.3-3,3-3s3,1.3,3,3v4C111,77.6,110.5,78,110,78z M107,76h2v-3    c0-0.6-0.4-1-1-1s-1,0.4-1,1V76z" style="fill: #594454;"/>
	</g>
	<g id="XMLID_1406_">
		<path class="st18" d="M110,68h-4c-0.6,0-1-0.4-1-1v-4c0-1.7,1.3-3,3-3s3,1.3,3,3v4C111,67.6,110.5,68,110,68z M107,66h2v-3    c0-0.6-0.4-1-1-1s-1,0.4-1,1V66z" style="fill: #594454;"/>
	</g>
	<g id="XMLID_1405_">
		<path class="st18" d="M38,58h-4c-0.6,0-1-0.4-1-1v-2c0-1.7,1.3-3,3-3s3,1.3,3,3v2C39,57.6,38.5,58,38,58z M35,56h2v-1    c0-0.6-0.4-1-1-1s-1,0.4-1,1V56z" style="fill: #594454;"/>
	</g>
	<g id="XMLID_1404_">
		<path class="st18" d="M46,58h-4c-0.6,0-1-0.4-1-1v-2c0-1.7,1.3-3,3-3s3,1.3,3,3v2C47,57.6,46.5,58,46,58z M43,56h2v-1    c0-0.6-0.4-1-1-1s-1,0.4-1,1V56z" style="fill: #594454;"/>
	</g>
	<g id="XMLID_1403_">
		<path class="st18" d="M54,58h-4c-0.6,0-1-0.4-1-1v-2c0-1.7,1.3-3,3-3s3,1.3,3,3v2C55,57.6,54.5,58,54,58z M51,56h2v-1    c0-0.6-0.4-1-1-1s-1,0.4-1,1V56z" style="fill: #594454;"/>
	</g>
	<g id="XMLID_1402_">
		<path class="st18" d="M62,58h-4c-0.6,0-1-0.4-1-1v-2c0-1.7,1.3-3,3-3s3,1.3,3,3v2C63,57.6,62.5,58,62,58z M59,56h2v-1    c0-0.6-0.4-1-1-1s-1,0.4-1,1V56z" style="fill: #594454;"/>
	</g>
	<g id="XMLID_1401_">
		<path class="st18" d="M70,58h-4c-0.6,0-1-0.4-1-1v-2c0-1.7,1.3-3,3-3s3,1.3,3,3v2C71,57.6,70.5,58,70,58z M67,56h2v-1    c0-0.6-0.4-1-1-1s-1,0.4-1,1V56z" style="fill: #594454;"/>
	</g>
	<g id="XMLID_1400_">
		<path class="st18" d="M78,58h-4c-0.6,0-1-0.4-1-1v-2c0-1.7,1.3-3,3-3s3,1.3,3,3v2C79,57.6,78.5,58,78,58z M75,56h2v-1    c0-0.6-0.4-1-1-1s-1,0.4-1,1V56z" style="fill: #594454;"/>
	</g>
	<g id="XMLID_1399_">
		<path class="st18" d="M86,58h-4c-0.6,0-1-0.4-1-1v-2c0-1.7,1.3-3,3-3s3,1.3,3,3v2C87,57.6,86.5,58,86,58z M83,56h2v-1    c0-0.6-0.4-1-1-1s-1,0.4-1,1V56z" style="fill: #594454;"/>
	</g>
	<g id="XMLID_1398_">
		<path class="st18" d="M94,58h-4c-0.6,0-1-0.4-1-1v-2c0-1.7,1.3-3,3-3s3,1.3,3,3v2C95,57.6,94.5,58,94,58z M91,56h2v-1    c0-0.6-0.4-1-1-1s-1,0.4-1,1V56z" style="fill: #594454;"/>
	</g>
	<g id="XMLID_1396_">
		<path class="st18" d="M24,40c-0.6,0-1-0.4-1-1v-2c0-0.6,0.4-1,1-1s1,0.4,1,1v2C25,39.6,24.5,40,24,40z" style="fill: #594454;"/>
	</g>
	<g id="XMLID_1395_">
		<path class="st18" d="M20,41c-0.6,0-1-0.4-1-1v-3c0-0.6,0.4-1,1-1s1,0.4,1,1v3C21,40.6,20.5,41,20,41z" style="fill: #594454;"/>
	</g>
	<g id="XMLID_1394_">
		<path class="st18" d="M28,41c-0.6,0-1-0.4-1-1v-3c0-0.6,0.4-1,1-1s1,0.4,1,1v3C29,40.6,28.5,41,28,41z" style="fill: #594454;"/>
	</g>
	<g id="XMLID_1393_">
		<path class="st18" d="M24,41c-0.6,0-1-0.4-1-1v-3c0-0.6,0.4-1,1-1s1,0.4,1,1v3C25,40.6,24.5,41,24,41z" style="fill: #594454;"/>
	</g>
	<g id="XMLID_1386_">
		<path class="st18" d="M112,42H96c-0.6,0-1-0.4-1-1v-8c0-0.6,0.4-1,1-1h16c0.6,0,1,0.4,1,1v8C113,41.6,112.5,42,112,42z M97,40h14    v-6H97V40z" style="fill: #594454;"/>
	</g>
	<g id="XMLID_1385_">
		<path class="st18" d="M104,41c-0.6,0-1-0.4-1-1v-3c0-0.6,0.4-1,1-1s1,0.4,1,1v3C105,40.6,104.5,41,104,41z" style="fill: #594454;"/>
	</g>
	<g id="XMLID_1384_">
		<path class="st18" d="M100,41c-0.6,0-1-0.4-1-1v-3c0-0.6,0.4-1,1-1s1,0.4,1,1v3C101,40.6,100.5,41,100,41z" style="fill: #594454;"/>
	</g>
	<g id="XMLID_1383_">
		<path class="st18" d="M108,41c-0.6,0-1-0.4-1-1v-3c0-0.6,0.4-1,1-1s1,0.4,1,1v3C109,40.6,108.5,41,108,41z" style="fill: #594454;"/>
	</g>
	<g id="XMLID_1381_">
		<path class="st18" d="M114,82H94c-0.6,0-1-0.4-1-1V57c0-0.6,0.4-1,1-1h20c0.6,0,1,0.4,1,1v24C115,81.6,114.5,82,114,82z M95,80h18    V58H95V80z" style="fill: #594454;"/>
	</g>
	<g id="XMLID_1378_">
		<path class="st18" d="M98,128H86c-0.6,0-1-0.4-1-1V81c0-0.6,0.4-1,1-1h12c0.6,0,1,0.4,1,1v46C99,127.6,98.5,128,98,128z M87,126    h10V82H87V126z" style="fill: #594454;"/>
	</g>
	<g id="XMLID_1371_">
		<path class="st18" d="M110,128H98c-0.6,0-1-0.4-1-1V81c0-0.6,0.4-1,1-1h12c0.6,0,1,0.4,1,1v46C111,127.6,110.5,128,110,128z     M99,126h10V82H99V126z" style="fill: #594454;"/>
	</g>
	<g id="XMLID_1365_">
		<path class="st18" d="M48,92c-1.7,0-3-1.3-3-3s1.3-3,3-3s3,1.3,3,3S49.6,92,48,92z M48,88c-0.6,0-1,0.4-1,1s0.4,1,1,1s1-0.4,1-1    S48.5,88,48,88z" style="fill: #594454;"/>
	</g>
	<g id="XMLID_1364_">
		<path class="st18" d="M80,92c-1.7,0-3-1.3-3-3s1.3-3,3-3s3,1.3,3,3S81.6,92,80,92z M80,88c-0.6,0-1,0.4-1,1s0.4,1,1,1s1-0.4,1-1    S80.5,88,80,88z" style="fill: #594454;"/>
	</g>
	<g id="XMLID_1363_">
		<path class="st18" d="M64,72c-1.7,0-3-1.3-3-3s1.3-3,3-3s3,1.3,3,3S65.6,72,64,72z M64,68c-0.6,0-1,0.4-1,1s0.4,1,1,1s1-0.4,1-1    S64.5,68,64,68z" style="fill: #594454;"/>
	</g>
	<g id="XMLID_1362_">
		<path class="st18" d="M46,84c-0.6,0-1-0.4-1-1v-2c0-0.6,0.4-1,1-1s1,0.4,1,1v2C47,83.6,46.5,84,46,84z" style="fill: #594454;"/>
	</g>
	<g id="XMLID_1361_">
		<path class="st18" d="M50,84c-0.6,0-1-0.4-1-1v-2c0-0.6,0.4-1,1-1s1,0.4,1,1v2C51,83.6,50.5,84,50,84z" style="fill: #594454;"/>
	</g>
	<g id="XMLID_1355_">
		<path class="st18" d="M34,84c-0.6,0-1-0.4-1-1v-2c0-0.6,0.4-1,1-1s1,0.4,1,1v2C35,83.6,34.5,84,34,84z" style="fill: #594454;"/>
	</g>
	<g id="XMLID_1354_">
		<path class="st18" d="M38,84c-0.6,0-1-0.4-1-1v-2c0-0.6,0.4-1,1-1s1,0.4,1,1v2C39,83.6,38.5,84,38,84z" style="fill: #594454;"/>
	</g>
	<g id="XMLID_1353_">
		<path class="st18" d="M46,60c-0.6,0-1-0.4-1-1v-2c0-0.6,0.4-1,1-1s1,0.4,1,1v2C47,59.6,46.5,60,46,60z" style="fill: #594454;"/>
	</g>
	<g id="XMLID_1352_">
		<path class="st18" d="M42,60c-0.6,0-1-0.4-1-1v-2c0-0.6,0.4-1,1-1s1,0.4,1,1v2C43,59.6,42.5,60,42,60z" style="fill: #594454;"/>
	</g>
	<g id="XMLID_1351_">
		<path class="st18" d="M50,60c-0.6,0-1-0.4-1-1v-2c0-0.6,0.4-1,1-1s1,0.4,1,1v2C51,59.6,50.5,60,50,60z" style="fill: #594454;"/>
	</g>
	<g id="XMLID_1346_">
		<path class="st18" d="M38,60c-0.6,0-1-0.4-1-1v-2c0-0.6,0.4-1,1-1s1,0.4,1,1v2C39,59.6,38.5,60,38,60z" style="fill: #594454;"/>
	</g>
	<g id="XMLID_1345_">
		<path class="st18" d="M62,60c-0.6,0-1-0.4-1-1v-2c0-0.6,0.4-1,1-1s1,0.4,1,1v2C63,59.6,62.5,60,62,60z" style="fill: #594454;"/>
	</g>
	<g id="XMLID_1344_">
		<path class="st18" d="M58,60c-0.6,0-1-0.4-1-1v-2c0-0.6,0.4-1,1-1s1,0.4,1,1v2C59,59.6,58.5,60,58,60z" style="fill: #594454;"/>
	</g>
	<g id="XMLID_1339_">
		<path class="st18" d="M66,60c-0.6,0-1-0.4-1-1v-2c0-0.6,0.4-1,1-1s1,0.4,1,1v2C67,59.6,66.5,60,66,60z" style="fill: #594454;"/>
	</g>
	<g id="XMLID_1338_">
		<path class="st18" d="M54,60c-0.6,0-1-0.4-1-1v-2c0-0.6,0.4-1,1-1s1,0.4,1,1v2C55,59.6,54.5,60,54,60z" style="fill: #594454;"/>
	</g>
	<g id="XMLID_1337_">
		<path class="st18" d="M78,60c-0.6,0-1-0.4-1-1v-2c0-0.6,0.4-1,1-1s1,0.4,1,1v2C79,59.6,78.5,60,78,60z" style="fill: #594454;"/>
	</g>
	<g id="XMLID_1336_">
		<path class="st18" d="M74,60c-0.6,0-1-0.4-1-1v-2c0-0.6,0.4-1,1-1s1,0.4,1,1v2C75,59.6,74.5,60,74,60z" style="fill: #594454;"/>
	</g>
	<g id="XMLID_1335_">
		<path class="st18" d="M82,60c-0.6,0-1-0.4-1-1v-2c0-0.6,0.4-1,1-1s1,0.4,1,1v2C83,59.6,82.5,60,82,60z" style="fill: #594454;"/>
	</g>
	<g id="XMLID_1334_">
		<path class="st18" d="M70,60c-0.6,0-1-0.4-1-1v-2c0-0.6,0.4-1,1-1s1,0.4,1,1v2C71,59.6,70.5,60,70,60z" style="fill: #594454;"/>
	</g>
	<g id="XMLID_1331_">
		<path class="st18" d="M90,60c-0.6,0-1-0.4-1-1v-2c0-0.6,0.4-1,1-1s1,0.4,1,1v2C91,59.6,90.5,60,90,60z" style="fill: #594454;"/>
	</g>
	<g id="XMLID_1329_">
		<path class="st18" d="M86,60c-0.6,0-1-0.4-1-1v-2c0-0.6,0.4-1,1-1s1,0.4,1,1v2C87,59.6,86.5,60,86,60z" style="fill: #594454;"/>
	</g>
	<g id="XMLID_1328_">
		<path class="st18" d="M54,84c-0.6,0-1-0.4-1-1v-2c0-0.6,0.4-1,1-1s1,0.4,1,1v2C55,83.6,54.5,84,54,84z" style="fill: #594454;"/>
	</g>
	<g id="XMLID_1326_">
		<path class="st18" d="M58,84c-0.6,0-1-0.4-1-1v-2c0-0.6,0.4-1,1-1s1,0.4,1,1v2C59,83.6,58.5,84,58,84z" style="fill: #594454;"/>
	</g>
	<g id="XMLID_1321_">
		<path class="st18" d="M62,84c-0.6,0-1-0.4-1-1v-2c0-0.6,0.4-1,1-1s1,0.4,1,1v2C63,83.6,62.5,84,62,84z" style="fill: #594454;"/>
	</g>
	<g id="XMLID_1316_">
		<path class="st18" d="M66,84c-0.6,0-1-0.4-1-1v-2c0-0.6,0.4-1,1-1s1,0.4,1,1v2C67,83.6,66.5,84,66,84z" style="fill: #594454;"/>
	</g>
	<g id="XMLID_1315_">
		<path class="st18" d="M70,84c-0.6,0-1-0.4-1-1v-2c0-0.6,0.4-1,1-1s1,0.4,1,1v2C71,83.6,70.5,84,70,84z" style="fill: #594454;"/>
	</g>
	<g id="XMLID_1313_">
		<path class="st18" d="M74,84c-0.6,0-1-0.4-1-1v-2c0-0.6,0.4-1,1-1s1,0.4,1,1v2C75,83.6,74.5,84,74,84z" style="fill: #594454;"/>
	</g>
	<g id="XMLID_1312_">
		<path class="st18" d="M78,84c-0.6,0-1-0.4-1-1v-2c0-0.6,0.4-1,1-1s1,0.4,1,1v2C79,83.6,78.5,84,78,84z" style="fill: #594454;"/>
	</g>
	<g id="XMLID_1310_">
		<path class="st18" d="M82,84c-0.6,0-1-0.4-1-1v-2c0-0.6,0.4-1,1-1s1,0.4,1,1v2C83,83.6,82.5,84,82,84z" style="fill: #594454;"/>
	</g>
	<g id="XMLID_1309_">
		<path class="st18" d="M90,84c-0.6,0-1-0.4-1-1v-2c0-0.6,0.4-1,1-1s1,0.4,1,1v2C91,83.6,90.5,84,90,84z" style="fill: #594454;"/>
	</g>
	<g id="XMLID_1308_">
		<path class="st18" d="M94,84c-0.6,0-1-0.4-1-1v-2c0-0.6,0.4-1,1-1s1,0.4,1,1v2C95,83.6,94.5,84,94,84z" style="fill: #594454;"/>
	</g>
	<g id="XMLID_1307_">
		<path class="st18" d="M28,18.6c-0.6,0-1-0.4-1-1v-7.3c0-1.5-0.8-2.9-2-3.7l-1-0.6l-1,0.7c-1.2,0.8-2,2.2-2,3.6v7.3    c0,0.6-0.4,1-1,1s-1-0.4-1-1v-7.3c0-2.2,1.1-4.2,2.9-5.3l1.6-1c0.3-0.2,0.7-0.2,1.1,0L26,5c1.8,1.2,2.9,3.2,2.9,5.3v7.3    C29,18.2,28.5,18.6,28,18.6z" style="fill: #594454;"/>
	</g>
	<g id="XMLID_1306_">
		<path class="st18" d="M24,6c-0.6,0-1-0.4-1-1V1c0-0.6,0.4-1,1-1s1,0.4,1,1v4C25,5.6,24.5,6,24,6z" style="fill: #594454;"/>
	</g>
	<g id="XMLID_1305_">
		<path class="st18" d="M24,18c-0.6,0-1-0.4-1-1v-2c0-0.6,0.4-1,1-1s1,0.4,1,1v2C25,17.6,24.5,18,24,18z" style="fill: #594454;"/>
	</g>
	<g id="XMLID_1304_">
		<path class="st18" d="M22,24c-0.6,0-1-0.4-1-1v-1c0-0.6,0.4-1,1-1s1,0.4,1,1v1C23,23.6,22.5,24,22,24z" style="fill: #594454;"/>
	</g>
	<g id="XMLID_1292_">
		<path class="st18" d="M26,24c-0.6,0-1-0.4-1-1v-1c0-0.6,0.4-1,1-1s1,0.4,1,1v1C27,23.6,26.5,24,26,24z" style="fill: #594454;"/>
	</g>
	<g id="XMLID_1287_">
		<path class="st18" d="M28,12h-7c-0.6,0-1-0.4-1-1s0.4-1,1-1h7c0.6,0,1,0.4,1,1S28.5,12,28,12z" style="fill: #594454;"/>
	</g>
	<g id="XMLID_1278_">
		<path class="st18" d="M108,34h-8c-0.6,0-1-0.4-1-1v-9c0-0.6,0.4-1,1-1h8c0.6,0,1,0.4,1,1v9C109,33.6,108.5,34,108,34z M101,32h6    v-7h-6V32z" style="fill: #594454;"/>
	</g>
	<g id="XMLID_1277_">
		<path class="st18" d="M110,25H98c-0.6,0-1-0.4-1-1v-6c0-0.6,0.4-1,1-1h12c0.6,0,1,0.4,1,1v6C111,24.6,110.5,25,110,25z M99,23h10    v-4H99V23z" style="fill: #594454;"/>
	</g>
	<g id="XMLID_1276_">
		<path class="st18" d="M108,18.6c-0.6,0-1-0.4-1-1v-7.3c0-1.5-0.8-2.9-2-3.7l-1-0.6l-1,0.7c-1.2,0.8-2,2.2-2,3.6v7.3    c0,0.6-0.4,1-1,1s-1-0.4-1-1v-7.3c0-2.2,1.1-4.2,2.9-5.3l1.6-1c0.3-0.2,0.7-0.2,1.1,0l1.5,1c1.8,1.2,2.9,3.2,2.9,5.3v7.3    C109,18.2,108.5,18.6,108,18.6z" style="fill: #594454;"/>
	</g>
	<g id="XMLID_1257_">
		<path class="st18" d="M104,6c-0.6,0-1-0.4-1-1V1c0-0.6,0.4-1,1-1s1,0.4,1,1v4C105,5.6,104.5,6,104,6z" style="fill: #594454;"/>
	</g>
	<g id="XMLID_1256_">
		<path class="st18" d="M104,18c-0.6,0-1-0.4-1-1v-2c0-0.6,0.4-1,1-1s1,0.4,1,1v2C105,17.6,104.5,18,104,18z" style="fill: #594454;"/>
	</g>
	<g id="XMLID_1255_">
		<path class="st18" d="M102,24c-0.6,0-1-0.4-1-1v-1c0-0.6,0.4-1,1-1s1,0.4,1,1v1C103,23.6,102.5,24,102,24z" style="fill: #594454;"/>
	</g>
	<g id="XMLID_1251_">
		<path class="st18" d="M106,24c-0.6,0-1-0.4-1-1v-1c0-0.6,0.4-1,1-1s1,0.4,1,1v1C107,23.6,106.5,24,106,24z" style="fill: #594454;"/>
	</g>
	<g id="XMLID_1246_">
		<path class="st18" d="M108,12h-7c-0.6,0-1-0.4-1-1s0.4-1,1-1h7c0.6,0,1,0.4,1,1S108.5,12,108,12z" style="fill: #594454;"/>
	</g>
	<g>
		<path class="st13" d="M74.1,65c0,0-4.1,1.5-4.1,6c0,1.1,0,2.5,0,4c0-4.5,4.1-6,4.1-6s3.9,1.5,3.9,6c0-1.5,0-2.9,0-4    C78,66.5,74.1,65,74.1,65z" style="fill: #726571;"/>
	</g>
	<g>
		<path class="st13" d="M86.1,65c0,0-4.1,1.5-4.1,6c0,1.1,0,2.5,0,4c0-4.5,4.1-6,4.1-6s3.9,1.5,3.9,6c0-1.5,0-2.9,0-4    C90,66.5,86.1,65,86.1,65z" style="fill: #726571;"/>
	</g>
	<g id="XMLID_1245_">
		<path class="st18" d="M78,83c-0.6,0-1-0.4-1-1V71c0-3-2.1-4.5-2.9-4.9C73.2,66.6,71,68,71,71v11c0,0.6-0.4,1-1,1s-1-0.4-1-1V71    c0-5.1,4.6-6.9,4.8-6.9c0.2-0.1,0.5-0.1,0.7,0c0.2,0.1,4.5,1.8,4.5,6.9v11C79,82.6,78.5,83,78,83z" style="fill: #594454;"/>
	</g>
	<g id="XMLID_1237_">
		<path class="st18" d="M90,83c-0.6,0-1-0.4-1-1V71c0-3-2.1-4.5-2.9-4.9C85.2,66.6,83,68,83,71v11c0,0.6-0.4,1-1,1s-1-0.4-1-1V71    c0-5.1,4.6-6.9,4.8-6.9c0.2-0.1,0.5-0.1,0.7,0c0.2,0.1,4.5,1.8,4.5,6.9v11C91,82.6,90.5,83,90,83z" style="fill: #594454;"/>
	</g>
	<g>
		<path class="st13" d="M36,107c-1.1,0-2,0.9-2,2v3c0-1.1,0.9-2,2-2s2,0.9,2,2v-3C38,107.9,37.1,107,36,107z" style="fill: #726571;"/>
	</g>
	<g>
		<path class="st13" d="M36,117c-1.1,0-2,0.9-2,2v3c0-1.1,0.9-2,2-2s2,0.9,2,2v-3C38,117.9,37.1,117,36,117z" style="fill: #726571;"/>
	</g>
	<g>
		<path class="st13" d="M92,87c-1.1,0-2,0.9-2,2v3c0-1.1,0.9-2,2-2s2,0.9,2,2v-3C94,87.9,93.1,87,92,87z" style="fill: #726571;"/>
	</g>
	<g>
		<path class="st13" d="M92,97c-1.1,0-2,0.9-2,2v3c0-1.1,0.9-2,2-2s2,0.9,2,2v-3C94,97.9,93.1,97,92,97z" style="fill: #726571;"/>
	</g>
	<g>
		<path class="st13" d="M92,107c-1.1,0-2,0.9-2,2v3c0-1.1,0.9-2,2-2s2,0.9,2,2v-3C94,107.9,93.1,107,92,107z" style="fill: #726571;"/>
	</g>
	<g>
		<path class="st13" d="M92,117c-1.1,0-2,0.9-2,2v3c0-1.1,0.9-2,2-2s2,0.9,2,2v-3C94,117.9,93.1,117,92,117z" style="fill: #726571;"/>
	</g>
	<g id="XMLID_1234_">
		<path class="st18" d="M38,114h-4c-0.6,0-1-0.4-1-1v-4c0-1.7,1.3-3,3-3s3,1.3,3,3v4C39,113.6,38.5,114,38,114z M35,112h2v-3    c0-0.6-0.4-1-1-1s-1,0.4-1,1V112z" style="fill: #594454;"/>
	</g>
	<g id="XMLID_1233_">
		<path class="st18" d="M38,124h-4c-0.6,0-1-0.4-1-1v-4c0-1.7,1.3-3,3-3s3,1.3,3,3v4C39,123.6,38.5,124,38,124z M35,122h2v-3    c0-0.6-0.4-1-1-1s-1,0.4-1,1V122z" style="fill: #594454;"/>
	</g>
	<g id="XMLID_1221_">
		<path class="st18" d="M94,94h-4c-0.6,0-1-0.4-1-1v-4c0-1.7,1.3-3,3-3s3,1.3,3,3v4C95,93.6,94.5,94,94,94z M91,92h2v-3    c0-0.6-0.4-1-1-1s-1,0.4-1,1V92z" style="fill: #594454;"/>
	</g>
	<g id="XMLID_1220_">
		<path class="st18" d="M94,104h-4c-0.6,0-1-0.4-1-1v-4c0-1.7,1.3-3,3-3s3,1.3,3,3v4C95,103.6,94.5,104,94,104z M91,102h2v-3    c0-0.6-0.4-1-1-1s-1,0.4-1,1V102z" style="fill: #594454;"/>
	</g>
	<g id="XMLID_1216_">
		<path class="st18" d="M94,124h-4c-0.6,0-1-0.4-1-1v-4c0-1.7,1.3-3,3-3s3,1.3,3,3v4C95,123.6,94.5,124,94,124z M91,122h2v-3    c0-0.6-0.4-1-1-1s-1,0.4-1,1V122z" style="fill: #594454;"/>
	</g>
	<g id="XMLID_1215_">
		<path class="st18" d="M94,114h-4c-0.6,0-1-0.4-1-1v-4c0-1.7,1.3-3,3-3s3,1.3,3,3v4C95,113.6,94.5,114,94,114z M91,112h2v-3    c0-0.6-0.4-1-1-1s-1,0.4-1,1V112z" style="fill: #594454;"/>
	</g>
</g>

	<metadata>
		<rdf:RDF xmlns:rdf="http://www.w3.org/1999/02/22-rdf-syntax-ns#" xmlns:rdfs="http://www.w3.org/2000/01/rdf-schema#" xmlns:dc="http://purl.org/dc/elements/1.1/">
			<rdf:Description about="https://iconscout.com/legal#licenses" dc:title="Hyderabad-04-03" dc:description="Hyderabad-04-03" dc:publisher="Iconscout" dc:date="2017-03-17" dc:format="image/svg+xml" dc:language="en">
				<dc:creator>
					<rdf:Bag>
						<rdf:li>Jemis Mali</rdf:li>
					</rdf:Bag>
				</dc:creator>
			</rdf:Description>
		</rdf:RDF>
    </metadata></svg>
