<svg xmlns="http://www.w3.org/2000/svg" xmlns:xlink="http://www.w3.org/1999/xlink" id="Layer_1" width="300" height="300" x="0" y="0" enable-background="new 0 0 300 300" version="1.1" viewBox="0 0 300 300" xml:space="preserve"><linearGradient id="SVGID_1_" x1="306" x2="306" y1="-245" y2="55" gradientTransform="matrix(1 0 0 -1 -156 55)" gradientUnits="userSpaceOnUse"><stop offset="0" style="stop-color:#0182ac"/><stop offset="1" style="stop-color:#0182ac"/></linearGradient><polygon fill="url(#SVGID_1_)" points="150 300 0 150 150 0 300 150"/><circle cx="150" cy="150" r="92" fill="#FFF"/><linearGradient id="SVGID_2_" x1="306" x2="306" y1="-177" y2="-11.001" gradientTransform="matrix(1 0 0 -1 -156 55)" gradientUnits="userSpaceOnUse"><stop offset="0" style="stop-color:#0182ac"/><stop offset="1" style="stop-color:#0182ac"/></linearGradient><circle cx="150" cy="150" r="82" fill="url(#SVGID_2_)"/><g id="outlines"><g id="chapter"><path id="chapter-c" fill="#FFF" d="M109.314,203.316c-1.008,0.504-3.274,1.043-6.227,1.043c-8.387,0-12.707-5.219-12.707-12.131 c0-8.277,5.903-12.886,13.247-12.886c2.843,0,5.003,0.575,5.975,1.079l-1.115,4.355c-1.116-0.469-2.664-0.899-4.607-0.899 c-4.354,0-7.739,2.627-7.739,8.026c0,4.859,2.88,7.919,7.775,7.919c1.656,0,3.492-0.359,4.572-0.791L109.314,203.316z"/><path id="chapter-h" fill="#FFF" d="M111.549,178.443h5.471v10.043h0.072c0.576-0.756,1.295-1.332,2.16-1.801 c0.792-0.433,1.835-0.685,2.843-0.685c3.492,0,6.155,2.412,6.155,7.703V204h-5.471v-9.684c0-2.303-0.792-3.887-2.845-3.887 c-1.438,0-2.339,0.936-2.734,1.907c-0.145,0.358-0.181,0.828-0.181,1.224V204h-5.471V178.443z"/><path id="chapter-a" fill="#FFF" d="M141.572,204l-0.324-1.764h-0.108c-1.151,1.404-2.952,2.16-5.04,2.16c-3.563,0-5.687-2.592-5.687-5.4 c0-4.57,4.104-6.768,10.331-6.73v-0.252c0-0.936-0.504-2.268-3.204-2.268c-1.8,0-3.708,0.611-4.859,1.332l-1.008-3.527 c1.224-0.685,3.636-1.549,6.839-1.549c5.867,0,7.739,3.456,7.739,7.596v6.119c0,1.691,0.072,3.313,0.252,4.283H141.572z M140.924,195.686c-2.88-0.037-5.111,0.647-5.111,2.771c0,1.402,0.937,2.088,2.16,2.088c1.368,0,2.483-0.9,2.845-2.016 c0.071-0.289,0.107-0.612,0.107-0.938L140.924,195.686L140.924,195.686z"/><path id="chapter-p" fill="#FFF" d="M149.493,192.301c0-2.303-0.072-4.283-0.145-5.902h4.752l0.252,2.447h0.072 c1.295-1.871,3.311-2.844,5.866-2.844c3.853,0,7.308,3.348,7.308,8.963c0,6.408-4.067,9.432-7.99,9.432 c-2.125,0-3.78-0.863-4.572-2.016h-0.072v8.746h-5.471V192.301L149.493,192.301z M154.964,196.441c0,0.432,0.037,0.828,0.108,1.15 c0.36,1.477,1.62,2.592,3.204,2.592c2.375,0,3.779-1.979,3.779-4.968c0-2.807-1.261-4.932-3.707-4.932 c-1.549,0-2.916,1.151-3.276,2.772c-0.071,0.287-0.108,0.646-0.108,0.971V196.441z"/><path id="chapter-t" fill="#FFF" d="M176.06,181.359v5.039h3.924v4.031h-3.924v6.37c0,2.124,0.504,3.097,2.16,3.097 c0.684,0,1.225-0.072,1.619-0.146l0.036,4.142c-0.721,0.287-2.016,0.467-3.563,0.467c-1.764,0-3.239-0.611-4.104-1.512 c-1.008-1.043-1.512-2.736-1.512-5.22v-7.198h-2.341v-4.031h2.341v-3.816L176.06,181.359z"/><path id="chapter-e" fill="#FFF" d="M186.104,196.945c0.18,2.268,2.412,3.348,4.967,3.348c1.872,0,3.385-0.252,4.859-0.721l0.721,3.708 c-1.801,0.72-3.996,1.079-6.371,1.079c-5.977,0-9.395-3.455-9.395-8.963c0-4.463,2.771-9.396,8.891-9.396 c5.688,0,7.847,4.429,7.847,8.783c0,0.937-0.108,1.764-0.181,2.159h-11.338V196.945z M192.548,193.201 c0-1.332-0.576-3.563-3.096-3.563c-2.305,0-3.24,2.088-3.384,3.563H192.548z"/><path id="chapter-r" fill="#FFF" d="M199.821,192.193c0-2.592-0.072-4.283-0.145-5.795h4.715l0.181,3.238h0.144 c0.9-2.556,3.062-3.636,4.752-3.636c0.504,0,0.756,0,1.151,0.072v5.147c-0.396-0.072-0.864-0.145-1.476-0.145 c-2.017,0-3.385,1.08-3.744,2.771c-0.071,0.358-0.107,0.791-0.107,1.223V204h-5.471V192.193z"/></g><g id="acm"><path id="acm-a" fill="#FFF" d="M101.766,165.816c-0.844,0.703-1.6,1.336-2.268,1.897s-1.564,1.125-2.689,1.688 c-1.102,0.539-2.174,0.949-3.217,1.229c-1.043,0.281-2.502,0.423-4.377,0.423c-3.493,0-6.393-1.173-8.701-3.517 c-2.309-2.345-3.463-5.297-3.463-8.858c0-2.931,0.585-5.298,1.758-7.103c1.172-1.805,2.859-3.234,5.063-4.289 c2.227-1.078,4.887-1.828,7.98-2.25c3.093-0.422,6.421-0.75,9.984-0.984v-0.211c0-2.18-0.803-3.686-2.408-4.518 s-4.014-1.248-7.225-1.248c-1.454,0-3.152,0.264-5.098,0.791c-1.946,0.527-3.844,1.201-5.695,2.021h-1.055v-9.527 c1.218-0.352,3.187-0.768,5.906-1.248c2.719-0.48,5.461-0.721,8.227-0.721c6.797,0,11.748,1.131,14.854,3.393 c3.105,2.262,4.658,5.713,4.658,10.354V170h-12.234V165.816L101.766,165.816z M101.766,159.699v-8.227 c-2.086,0.211-3.774,0.393-5.063,0.545c-1.289,0.151-2.555,0.45-3.797,0.896c-1.078,0.375-1.916,0.942-2.514,1.705 c-0.598,0.762-0.896,1.774-0.896,3.041c0,1.852,0.498,3.123,1.494,3.813c0.996,0.691,2.466,1.037,4.412,1.037 c1.078,0,2.18-0.246,3.305-0.738S100.852,160.59,101.766,159.699z"/><path id="acm-c" fill="#FFF" d="M141.253,171.055c-3.258,0-6.24-0.41-8.947-1.229c-2.707-0.82-5.057-2.086-7.049-3.798 c-1.969-1.711-3.504-3.86-4.605-6.45c-1.102-2.591-1.652-5.644-1.652-9.158c0-3.773,0.598-6.984,1.793-9.633 c1.195-2.648,2.813-4.828,4.852-6.539c1.969-1.64,4.283-2.853,6.943-3.639c2.66-0.785,5.432-1.178,8.314-1.178 c2.18,0,4.359,0.252,6.539,0.756c2.18,0.504,4.372,1.307,6.574,2.408v10.547h-1.582c-0.491-0.469-1.096-0.984-1.811-1.547 c-0.716-0.563-1.495-1.078-2.338-1.547c-0.891-0.492-1.898-0.908-3.023-1.248c-1.125-0.339-2.379-0.51-3.762-0.51 c-3.141,0-5.572,1.096-7.295,3.287c-1.723,2.192-2.584,5.139-2.584,8.842c0,3.961,0.919,6.914,2.76,8.859 c1.84,1.945,4.283,2.918,7.33,2.918c1.547,0,2.906-0.176,4.078-0.527c1.172-0.352,2.18-0.773,3.023-1.266 c0.821-0.492,1.524-1.002,2.11-1.529s1.09-1.002,1.512-1.424h1.582v10.547c-0.702,0.305-1.518,0.656-2.442,1.055 c-0.927,0.398-1.87,0.727-2.831,0.984c-1.195,0.328-2.315,0.58-3.357,0.756C144.341,170.967,142.964,171.055,141.253,171.055z"/><path id="acm-m" fill="#FFF" d="M208.18,170v-19.723c0-1.945-0.035-3.586-0.105-4.922s-0.281-2.426-0.633-3.27 c-0.352-0.844-0.896-1.459-1.635-1.846c-0.739-0.387-1.775-0.58-3.111-0.58c-0.938,0-1.863,0.206-2.777,0.615 c-0.914,0.41-1.91,0.99-2.988,1.74V170h-12.375v-19.723c0-1.921-0.04-3.556-0.122-4.904s-0.3-2.443-0.65-3.287 c-0.351-0.844-0.896-1.459-1.635-1.846c-0.739-0.387-1.765-0.58-3.076-0.58c-1.008,0-1.991,0.234-2.953,0.703 c-0.961,0.469-1.897,1.02-2.813,1.652V170H161v-39.48h12.305v4.359c2.017-1.71,3.914-3.046,5.695-4.008 c1.781-0.961,3.785-1.441,6.012-1.441c2.414,0,4.535,0.575,6.363,1.723s3.224,2.86,4.185,5.133c2.366-2.203,4.6-3.896,6.696-5.08 c2.099-1.183,4.226-1.775,6.381-1.775c1.828,0,3.47,0.293,4.923,0.879c1.452,0.586,2.684,1.465,3.69,2.637 c1.103,1.266,1.928,2.771,2.479,4.518c0.551,1.746,0.825,4.025,0.825,6.838V170H208.18z"/></g></g></svg>